# Blender 5.0.1
# www.blender.org
o LightHouse.001
v -2.418744 -0.477803 4.382911
v -2.490336 1.480947 -0.000421
v -2.082273 1.207896 4.382911
v -0.747851 2.643565 -0.000421
v -0.652383 2.161944 4.382911
v 1.306368 2.233537 -0.000421
v 1.033316 1.825474 4.382911
v 2.468986 0.491052 -0.000421
v 1.987365 0.395584 4.382911
v 2.058958 -1.563167 -0.000421
v 1.650894 -1.290115 4.382911
v 0.316472 -2.725785 -0.000421
v 0.221004 -2.244164 4.382911
v -1.737746 -2.315757 -0.000421
v -1.464695 -1.907693 4.382911
v -1.767011 0.996941 8.766241
v -2.046652 -0.404047 8.766241
v -0.578626 1.789853 8.766241
v 0.822362 1.510212 8.766241
v 1.615274 0.321827 8.766241
v 1.335632 -1.079161 8.766241
v 0.147248 -1.872073 8.766241
v -1.253740 -1.592431 8.766241
v -1.581810 0.873016 13.149570
v -1.828067 -0.360718 13.149570
v -0.535298 1.571268 13.149570
v 0.698436 1.325011 13.149570
v 1.396688 0.278499 13.149570
v 1.150431 -0.955235 13.149570
v 0.103919 -1.653487 13.149570
v -1.129815 -1.407230 13.149570
v -1.924642 1.102419 6.574576
v -0.615505 1.975899 6.574576
v 1.801319 0.358706 6.574576
v 1.493263 -1.184638 6.574576
v -1.359218 -1.750062 6.574576
v -2.232698 -0.440925 6.574576
v 0.927839 1.667843 6.574576
v 0.184126 -2.058119 6.574576
v -1.674410 0.934979 10.957907
v -0.556962 1.680560 10.957907
v 0.125584 -1.762780 10.957907
v -1.191777 -1.499831 10.957907
v 1.505981 0.300163 10.957907
v 1.243032 -1.017198 10.957907
v 0.760399 1.417611 10.957907
v -1.937360 -0.382383 10.957907
v -0.620469 2.000944 13.444786
v -0.620469 2.000944 13.367501
v 0.942038 1.689063 13.367501
v 0.942038 1.689063 13.444786
v -2.257743 -0.445890 13.444786
v -2.257743 -0.445890 13.367501
v -1.945862 1.116618 13.367501
v -1.945862 1.116618 13.444786
v -1.695812 0.949299 13.140619
v -1.962619 -0.387390 13.140619
v -0.561969 1.705820 13.140619
v 0.774720 1.439013 13.140619
v 1.531240 0.305170 13.140619
v 1.264433 -1.031519 13.140619
v 0.130591 -1.788040 13.140619
v -1.206098 -1.521232 13.140619
v -1.695812 0.949299 13.373087
v -1.962619 -0.387390 13.373087
v -0.561969 1.705820 13.373087
v 0.774720 1.439013 13.373087
v 1.531240 0.305170 13.373087
v 1.264433 -1.031519 13.373087
v 0.130591 -1.788040 13.373087
v -1.206098 -1.521232 13.373087
v -1.187495 0.609164 13.523148
v -1.362673 -0.268467 13.523148
v -0.443047 1.105874 13.523148
v 0.434585 0.930696 13.523148
v 0.931295 0.186248 13.523148
v 0.756117 -0.691384 13.523148
v 0.011668 -1.188094 13.523148
v -0.865964 -1.012916 13.523148
v -0.561969 1.705820 13.439199
v -1.695812 0.949299 13.439199
v -1.206098 -1.521232 13.439199
v -1.962619 -0.387390 13.439199
v 0.774720 1.439013 13.439199
v 1.531240 0.305170 13.439199
v 1.264433 -1.031519 13.439199
v 0.130591 -1.788040 13.439199
v 1.826365 0.363670 13.367501
v 1.514484 -1.198838 13.367501
v 0.189091 -2.083164 13.367501
v -1.373417 -1.771283 13.367501
v 1.514484 -1.198838 13.444786
v 1.826365 0.363670 13.444786
v -1.373417 -1.771283 13.444786
v 0.189091 -2.083164 13.444786
v -1.581810 0.873016 13.430252
v -1.828067 -0.360718 13.430252
v -0.535298 1.571268 13.430252
v 0.698436 1.325011 13.430252
v 1.396688 0.278499 13.430252
v 1.150431 -0.955235 13.430252
v 0.103919 -1.653487 13.430252
v -1.129815 -1.407230 13.430252
v -1.187495 0.609164 15.428516
v -1.362673 -0.268467 15.428516
v -0.443047 1.105874 15.428516
v 0.434585 0.930696 15.428516
v 0.931295 0.186248 15.428516
v 0.756117 -0.691384 15.428516
v 0.011668 -1.188094 15.428516
v -0.865964 -1.012916 15.428516
v -0.215689 -0.041109 16.494932
v -0.102010 -0.614601 15.865120
v 0.357803 0.072569 15.865120
v -0.540826 -0.527012 15.865120
v -0.789181 -0.154788 15.865120
v -0.701592 0.284028 15.865120
v -0.329368 0.532383 15.865120
v 0.270214 -0.366247 15.865120
v 0.109448 0.444794 15.865120
v -1.362673 -0.268467 15.335148
v -1.187495 0.609164 15.335148
v -0.865964 -1.012916 15.335148
v 0.756117 -0.691384 15.335148
v 0.011668 -1.188094 15.335148
v 0.434585 0.930696 15.335148
v 0.931295 0.186248 15.335148
v -0.443047 1.105874 15.335148
v -1.458233 0.790325 15.321917
v -1.682214 -0.331807 15.321917
v -0.506387 1.425415 15.321917
v 0.615746 1.201433 15.321917
v 1.250835 0.249587 15.321917
v 1.026854 -0.872545 15.321917
v 0.075008 -1.507634 15.321917
v -1.047125 -1.283653 15.321917
v -1.682214 -0.331807 15.268311
v -1.047125 -1.283653 15.268311
v 1.026854 -0.872545 15.268311
v 0.615746 1.201433 15.268311
v -1.458233 0.790325 15.268311
v 0.075008 -1.507634 15.268311
v 1.250835 0.249587 15.268311
v -0.506387 1.425415 15.268311
v 0.106375 1.572416 13.439199
v 1.152980 0.872091 13.439199
v 1.397837 -0.363174 13.439199
v 0.697512 -1.409779 13.439199
v -0.537754 -1.654636 13.439199
v -1.584358 -0.954311 13.439199
v -1.829215 0.280955 13.439199
v -1.128890 1.327559 13.439199
v -1.058554 1.222142 13.430252
v -1.704938 0.256149 13.430252
v 1.273560 -0.338368 13.430252
v 0.627175 -1.304361 13.430252
v -0.512948 -1.530359 13.430252
v -1.478941 -0.883974 13.430252
v 0.081569 1.448139 13.430252
v 1.047562 0.801755 13.430252
v -1.187495 0.609164 15.111124
v 0.011668 -1.188094 15.111124
v 0.931295 0.186248 15.111124
v -0.443047 1.105874 15.111124
v -1.362673 -0.268467 15.111124
v -0.865964 -1.012916 15.111124
v 0.756117 -0.691384 15.111124
v 0.434585 0.930696 15.111124
v -1.226124 0.635012 13.872770
v 0.020705 -1.233685 13.872770
v 0.976887 0.195285 13.872770
v -0.452084 1.151466 13.872770
v -1.408265 -0.277504 13.872770
v -0.891811 -1.051544 13.872770
v 0.794745 -0.717232 13.872770
v 0.460433 0.969325 13.872770
v -1.235804 0.586517 13.920330
v -1.398585 -0.229010 13.920330
v -1.353364 -0.221826 15.063564
v -1.196805 0.562523 15.063564
v -1.380819 -0.318640 13.920330
v -0.919258 -1.010409 13.920330
v -0.892361 -0.973353 15.063564
v -1.336276 -0.308030 15.063564
v 0.061841 -1.206239 13.920330
v 0.753609 -0.744678 13.920330
v 0.716554 -0.717781 15.063564
v 0.051231 -1.161697 15.063564
v 0.949440 0.236421 13.920330
v 0.487879 0.928189 13.920330
v 0.460982 0.891133 15.063564
v 0.904898 0.225811 15.063564
v -0.493220 1.124020 13.920330
v -1.184988 0.662459 13.920330
v -1.147932 0.635562 15.063564
v -0.482610 1.079477 15.063564
v -0.843316 -1.061224 13.920330
v -0.027789 -1.224006 13.920330
v -0.034973 -1.178784 15.063564
v -0.819322 -1.022226 15.063564
v 0.804425 -0.668737 13.920330
v 0.967207 0.146790 13.920330
v 0.921985 0.139607 15.063564
v 0.765427 -0.644743 15.063564
v 0.411938 0.979004 13.920330
v -0.403589 1.141786 13.920330
v -0.396406 1.096565 15.063564
v 0.387944 0.940006 15.063564
v -1.300707 -0.248546 13.920330
v -1.137925 0.566980 13.920330
v -1.102669 0.543733 15.063564
v -1.259228 -0.240616 15.063564
v -0.836233 -0.955013 13.920330
v -1.297793 -0.263244 13.920330
v -1.256425 -0.254752 15.063564
v -0.812510 -0.920075 15.063564
v 0.698214 -0.661653 13.920330
v 0.006445 -1.123214 13.920330
v -0.002047 -1.081846 15.063564
v 0.663276 -0.637930 15.063564
v 0.404854 0.872793 13.920330
v 0.866415 0.181025 13.920330
v 0.825047 0.172533 15.063564
v 0.381131 0.837855 15.063564
v -1.129592 0.579434 13.920330
v -0.437824 1.040995 13.920330
v -0.429332 0.999626 15.063564
v -1.094654 0.555711 15.063564
v -0.008253 -1.126127 13.920330
v -0.823779 -0.963346 13.920330
v -0.800533 -0.928089 15.063564
v -0.016183 -1.084648 15.063564
v 0.869329 0.166327 13.920330
v 0.706547 -0.649200 13.920330
v 0.671290 -0.625953 15.063564
v 0.827849 0.158397 15.063564
v -0.423126 1.043908 13.920330
v 0.392401 0.881126 13.920330
v 0.369154 0.845870 15.063564
v -0.415196 1.002428 15.063564
v -1.034467 -0.587413 15.063564
v -1.067013 -0.609129 13.920330
v -0.408358 -1.006369 15.063564
v -0.416016 -1.044737 13.920330
v 0.330615 -0.859888 15.063564
v 0.352330 -0.892434 13.920330
v 0.749570 -0.233778 15.063564
v 0.787938 -0.241437 13.920330
v 0.603089 0.505194 15.063564
v 0.635635 0.526909 13.920330
v -0.004231 1.018285 15.063564
v -0.023021 0.924149 15.063564
v -0.015362 0.962517 13.920330
v -0.761993 0.777669 15.063564
v -0.783708 0.810214 13.920330
v -1.180948 0.151559 15.063564
v -1.219316 0.159217 13.920330
v -0.574428 1.768672 9.190991
v -1.241732 -1.574485 9.190991
v 1.317686 -1.067152 9.190991
v 0.810353 1.492266 9.190991
v -1.749065 0.984933 9.190991
v 0.143049 -1.850892 9.190991
v 1.594093 0.317629 9.190991
v -2.025471 -0.399848 9.190991
v -1.740728 0.979355 9.388288
v 0.141099 -1.841053 9.388288
v 1.584254 0.315678 9.388288
v -2.015632 -0.397898 9.388288
v -0.572477 1.758833 9.388288
v -1.236154 -1.566149 9.388288
v 1.309350 -1.061574 9.388288
v 0.804775 1.483929 9.388288
v -0.585407 1.824063 9.391864
v -0.587428 1.834258 9.187416
v -1.273135 -1.621416 9.391864
v -1.278916 -1.630054 9.187416
v 1.364617 -1.098556 9.391864
v 1.373256 -1.104336 9.187416
v 0.841757 1.539197 9.391864
v 0.847537 1.547835 9.187416
v -1.804634 1.022117 9.187416
v 0.156050 -1.916478 9.187416
v 1.659679 0.330629 9.187416
v -2.091058 -0.412849 9.187416
v -1.795996 1.016336 9.391864
v 0.154029 -1.906283 9.391864
v 1.649484 0.328608 9.391864
v -2.080863 -0.410828 9.391864
v -0.645241 2.125917 4.807319
v 1.620369 -1.269690 4.807319
v -2.382716 -0.470662 4.807319
v 1.012891 1.794949 4.807319
v 0.213863 -2.208137 4.807319
v -2.051748 1.187470 4.807319
v 1.951338 0.388442 4.807319
v -1.444269 -1.877169 4.807319
v -2.038756 1.178777 4.987950
v 1.936005 0.385403 4.987950
v -1.435576 -1.864177 4.987950
v -0.642202 2.110584 4.987950
v 1.607378 -1.260997 4.987950
v -2.367383 -0.467623 4.987950
v 1.004198 1.781958 4.987950
v 0.210824 -2.192803 4.987950
v -0.660317 2.201968 4.991786
v -0.663485 2.217953 4.803482
v 1.684805 -1.312806 4.991786
v 1.698349 -1.321869 4.803482
v -2.458767 -0.485737 4.991786
v -2.474752 -0.488906 4.803482
v 1.056008 1.859385 4.991786
v 1.065070 1.872928 4.803482
v 0.228938 -2.284188 4.991786
v 0.232107 -2.300173 4.803482
v -2.129727 1.239649 4.803482
v 2.043373 0.406686 4.803482
v -1.496449 -1.955148 4.803482
v -2.116184 1.230587 4.991786
v 2.027389 0.403518 4.991786
v -1.487386 -1.941604 4.991786
v -1.891575 1.080292 8.087695
v 1.762292 0.350969 8.087695
v -1.337091 -1.716996 8.087695
v -0.607769 1.936872 8.087695
v 1.460197 -1.162512 8.087695
v -2.193671 -0.433189 8.087695
v 0.905713 1.634776 8.087695
v 0.176390 -2.019091 8.087695
v -1.940467 1.113008 6.354551
v 1.819997 0.362408 6.354551
v -1.369806 -1.765887 6.354551
v -0.619207 1.994576 6.354551
v 1.509088 -1.195227 6.354551
v -2.251375 -0.444627 6.354551
v 0.938428 1.683668 6.354551
v 0.187828 -2.076796 6.354551
v -1.987991 1.144808 6.351521
v -1.971730 1.133927 6.577607
v 1.876088 0.373526 6.351521
v 1.856896 0.369722 6.577607
v -1.401607 -1.813411 6.351521
v -1.390726 -1.797151 6.577607
v 0.195143 -2.113695 6.577607
v 0.959348 1.714931 6.577607
v 1.540352 -1.216147 6.577607
v -0.626521 2.031475 6.577607
v -2.288275 -0.451942 6.577607
v -0.630325 2.050667 6.351521
v 1.556612 -1.227027 6.351521
v -2.307466 -0.455746 6.351521
v 0.970228 1.731192 6.351521
v 0.198947 -2.132887 6.351521
v -1.647739 0.917132 11.589158
v 0.119344 -1.731301 11.589158
v 1.474502 0.293923 11.589158
v -1.905881 -0.376143 11.589158
v -0.550722 1.649082 11.589158
v -1.173931 -1.473160 11.589158
v 1.216361 -0.999351 11.589158
v 0.742553 1.390940 11.589158
v -0.552609 1.658602 11.398255
v -1.179328 -1.481225 11.398255
v 1.224426 -1.004749 11.398255
v 0.747949 1.399006 11.398255
v -1.655805 0.922529 11.398255
v 0.121231 -1.740821 11.398255
v 1.484022 0.295810 11.398255
v -1.915401 -0.378030 11.398255
v -1.711469 0.959776 11.394565
v -1.703091 0.954170 11.592847
v 0.134253 -1.806519 11.394565
v 0.132294 -1.796631 11.592847
v 1.549719 0.308833 11.394565
v 1.539832 0.306873 11.592847
v -1.981098 -0.391053 11.394565
v -1.971210 -0.389093 11.592847
v 0.779590 1.446292 11.592847
v 1.271712 -1.036389 11.592847
v -1.210969 -1.528511 11.592847
v -0.563672 1.714411 11.592847
v -0.565632 1.724299 11.394565
v -1.216575 -1.536889 11.394565
v 1.280090 -1.041995 11.394565
v 0.785196 1.454670 11.394565
v -1.786557 -0.538306 11.786190
v -1.277858 -1.300724 11.786190
v -1.244883 -1.251444 12.952541
v -1.728395 -0.526777 12.952541
v 1.355179 0.456087 11.786190
v 0.846480 1.218504 11.786190
v 0.813505 1.169225 12.952541
v 1.297016 0.444557 12.952541
v 1.686751 0.521786 6.771769
v 1.034438 1.499445 6.771769
v 1.018079 1.474997 7.930499
v 1.657895 0.516066 7.930499
v -2.118129 -0.604005 6.771769
v -1.465817 -1.581665 6.771769
v -1.449458 -1.557217 7.930499
v -2.089274 -0.598286 7.930499
v 1.661420 0.516765 7.788998
v 1.020069 1.477971 7.789552
v -2.092730 -0.598971 7.791736
v -1.451401 -1.560121 7.792874
v 1.702190 0.543967 7.790147
v 1.698666 0.543269 7.931649
v 1.058850 1.502200 7.931649
v -1.492171 -1.587324 7.794024
v -1.490228 -1.584420 7.931649
v -2.130045 -0.625489 7.931649
v 1.060840 1.505174 7.790702
v -2.133500 -0.626173 7.792884
v -1.138526 -1.207759 11.778322
v -1.647225 -0.445341 11.778322
v -1.589062 -0.433812 12.944673
v -1.105551 -1.158479 12.944673
v 0.707147 1.125539 11.778322
v 1.215846 0.363121 11.778322
v 1.157683 0.351592 12.944673
v 0.674172 1.076259 12.944673
v 0.894991 1.406403 6.767836
v 1.547303 0.428744 6.767836
v 0.880621 1.384929 7.785621
v -1.326369 -1.488623 6.767836
v -1.978681 -0.510963 6.767836
v -1.953282 -0.505929 7.787804
v 1.521972 0.423722 7.785065
v -1.311953 -1.467079 7.788942
v -2.616349 -0.516973 2.584468
v -2.249698 1.319926 2.584468
v -0.691553 2.359549 2.584468
v 1.145347 1.992899 2.584468
v 2.184970 0.434753 2.584468
v 1.818319 -1.402146 2.584468
v 0.260174 -2.441769 2.584468
v -1.576725 -2.075118 2.584468
v -2.695350 0.453838 -0.000421
v -2.319055 -1.444514 -0.000421
v -2.632871 -0.520248 2.434089
v -2.110364 -1.305272 2.423843
v -2.449182 0.404702 2.425245
v -2.615767 -1.503328 0.032244
v -2.992062 0.395023 0.032244
v -2.803915 -0.554153 2.424762
v -2.634434 -1.409154 2.414516
v -2.973384 0.300794 2.415918
v -2.803915 -0.554153 2.311580
v -2.917177 0.017240 2.181557
v -2.690637 -1.125619 2.179428
v -3.013014 -0.595601 2.311580
v -3.013014 -0.595601 2.424762
v -2.842717 -1.454720 2.310338
v -2.843534 -1.450602 2.414516
v -3.183291 0.263421 2.312825
v -3.182483 0.259346 2.415918
v -2.678364 -1.187535 0.163332
v -2.803915 -0.554153 0.163332
v -2.929463 0.079220 0.163332
v -2.974191 0.304869 2.312825
v -2.633618 -1.413272 2.310338
v -2.803951 -0.553970 2.180492
v -2.990884 0.389082 0.182523
v -2.617055 -1.496830 0.196641
v -1.727586 -2.300572 0.162685
v 2.045047 -1.553858 0.149011
v 1.297205 2.219845 0.146656
v -2.681829 0.451139 0.132810
v -2.475433 1.470975 0.159668
v -2.305258 -1.435308 0.159859
v 0.312909 -2.707807 0.163194
v 2.453962 0.488074 0.136309
v -0.744379 2.626050 0.158983
v -2.714763 0.462442 -0.001557
v -2.507161 1.502517 -0.001557
v -2.492070 1.492419 0.160551
v -0.742679 2.679812 -0.001557
v -0.739163 2.662076 0.159859
v 1.337472 2.264608 -0.001557
v 1.328195 2.250743 0.147375
v 2.514767 0.500125 -0.001557
v 2.499555 0.497110 0.136897
v 2.099563 -1.580026 -0.001557
v 2.085476 -1.570599 0.149760
v 0.335080 -2.757320 -0.001557
v 0.331472 -2.739116 0.164122
v -1.745071 -2.342116 -0.001557
v -1.734782 -2.326740 0.163607
v -2.333718 -1.459875 -0.001557
v -2.985886 -1.256803 0.164263
v -3.113021 -0.615426 0.164263
v -3.240154 0.025943 0.164263
v -2.922498 -1.576584 0.031519
v -3.303544 0.345733 0.031519
v -3.302351 0.339717 0.183694
v -2.923803 -1.570003 0.197991
v -2.701072 0.459709 0.133355
v -2.319746 -1.450552 0.160744
v -3.302950 0.342735 0.107335
v -2.923077 -1.573667 0.105294
v -3.113021 -0.615426 0.106316
v -3.167695 -1.625187 0.031519
v -3.358217 -0.664029 0.031519
v -3.548740 0.297129 0.031519
v -3.358217 -0.664029 0.106316
v -3.548146 0.294132 0.107335
v -3.168273 -1.622271 0.105294
v -2.481374 -1.148487 0.163332
v -2.606925 -0.515105 0.163332
v -2.732473 0.118268 0.163332
v -2.606961 -0.514922 2.180492
v -2.720187 0.056288 2.181557
v -2.493647 -1.086571 2.179428
vn -0.9754 0.1947 0.1029
vn -0.5521 0.8274 0.1029
vn 0.1947 0.9754 0.1029
vn 0.8274 0.5521 0.1029
vn 0.9754 -0.1947 0.1029
vn 0.5521 -0.8274 0.1029
vn -0.5438 0.8150 0.1999
vn -0.1947 -0.9754 0.1029
vn -0.8274 -0.5521 0.1029
vn -0.5544 0.8309 0.0469
vn 0.9609 -0.1918 0.1999
vn -0.8150 -0.5438 0.1999
vn -0.9609 0.1918 0.1999
vn 0.1918 0.9609 0.1999
vn 0.5438 -0.8150 0.1999
vn 0.8150 0.5438 0.1999
vn -0.1918 -0.9609 0.1999
vn 0.0138 0.0691 -0.9975
vn -0.1955 -0.9796 0.0469
vn 0.9796 -0.1955 0.0469
vn 0.1955 0.9796 0.0469
vn -0.9796 0.1955 0.0469
vn -0.5542 0.8322 -0.0194
vn 0.5544 -0.8309 0.0469
vn -0.0195 -0.0130 0.9997
vn 0.0318 -0.0476 -0.9984
vn 0.0112 0.0562 -0.9984
vn 0.0113 0.0567 0.9983
vn 0.0321 -0.0481 0.9983
vn -0.0476 -0.0318 -0.9984
vn -0.0567 0.0113 0.9983
vn -0.0318 0.0476 -0.9984
vn 0.0481 0.0321 0.9983
vn 0.8309 0.5544 0.0469
vn -0.8309 -0.5544 0.0469
vn -0.5550 0.8318 -0.0000
vn 0.0112 -0.0167 0.9998
vn -0.0391 0.0586 -0.9975
vn 0.0197 -0.0039 -0.9998
vn -0.0691 0.0138 -0.9975
vn 0.0167 0.0111 -0.9998
vn 0.0197 -0.0039 0.9998
vn -0.0586 -0.0391 -0.9975
vn 0.5550 -0.8318 -0.0000
vn 0.8318 0.5550 -0.0000
vn -0.1957 -0.9807 -0.0000
vn 0.9807 -0.1957 -0.0000
vn 0.1957 0.9807 -0.0000
vn -0.9807 0.1957 -0.0000
vn -0.8318 -0.5550 -0.0000
vn 0.0039 0.0197 -0.9998
vn 0.0586 0.0391 -0.9975
vn 0.0691 -0.0138 -0.9975
vn 0.0167 0.0112 0.9998
vn 0.0391 -0.0586 -0.9975
vn -0.0112 0.0167 -0.9998
vn -0.0138 -0.0691 -0.9975
vn 0.0039 0.0197 0.9998
vn -0.2777 -0.1853 0.9426
vn 0.0112 -0.0167 -0.9998
vn -0.0039 -0.0197 0.9998
vn -0.0039 -0.0197 -0.9998
vn -0.0167 -0.0112 0.9998
vn -0.0167 -0.0112 -0.9998
vn -0.0197 0.0039 0.9998
vn -0.0112 0.0167 0.9998
vn -0.0197 0.0039 -0.9998
vn -0.2033 0.0406 0.9783
vn -0.1151 0.1725 0.9783
vn 0.0406 0.2033 0.9783
vn 0.1725 0.1151 0.9783
vn 0.2033 -0.0406 0.9783
vn 0.1151 -0.1725 0.9783
vn -0.0406 -0.2033 0.9783
vn -0.1725 -0.1151 0.9783
vn -0.3489 0.5229 0.7777
vn 0.1203 -0.1803 -0.9762
vn -0.0654 -0.3274 0.9426
vn 0.0424 0.2126 -0.9762
vn 0.1853 -0.2777 0.9426
vn -0.2126 0.0424 -0.9762
vn 0.3274 -0.0654 0.9426
vn -0.0424 -0.2126 -0.9762
vn 0.5229 0.3489 0.7777
vn -0.7444 0.1486 0.6510
vn 0.3489 -0.5229 0.7777
vn 0.6165 -0.1230 0.7777
vn -0.5229 -0.3489 0.7777
vn 0.1230 0.6165 0.7777
vn -0.1230 -0.6165 0.7777
vn 0.6314 0.4213 0.6510
vn 0.1486 0.7444 0.6510
vn -0.6165 0.1230 0.7777
vn -0.1486 -0.7444 0.6510
vn 0.4213 -0.6314 0.6510
vn 0.7444 -0.1486 0.6510
vn -0.4213 0.6314 0.6510
vn -0.6314 -0.4213 0.6510
vn -0.3274 0.0654 0.9426
vn -0.1803 -0.1203 -0.9762
vn -0.1853 0.2777 0.9426
vn -0.1203 0.1803 -0.9762
vn 0.0654 0.3274 0.9426
vn 0.1803 0.1203 -0.9762
vn 0.2777 0.1853 0.9426
vn 0.2126 -0.0424 -0.9762
vn 0.0691 -0.0138 0.9975
vn 0.0586 0.0391 0.9975
vn 0.0391 -0.0586 0.9975
vn 0.0138 0.0691 0.9975
vn -0.0138 -0.0691 0.9975
vn -0.0391 0.0586 0.9975
vn -0.0586 -0.0391 0.9975
vn -0.0691 0.0138 0.9975
vn -0.1957 -0.9806 -0.0139
vn 0.9806 -0.1957 -0.0139
vn -0.0000 -0.0000 -1.0000
vn -0.0000 -0.0000 1.0000
vn 0.5550 -0.8318 -0.0139
vn -0.5550 0.8318 -0.0139
vn 0.1943 0.9733 -0.1219
vn 0.9733 -0.1943 -0.1219
vn -0.1943 -0.9733 -0.1219
vn -0.5509 0.8256 -0.1219
vn 0.8256 0.5509 -0.1219
vn 0.5509 -0.8256 -0.1219
vn -0.8256 -0.5509 -0.1219
vn -0.9733 0.1943 -0.1219
vn -0.9800 0.1956 0.0360
vn -0.8313 -0.5547 0.0360
vn 0.5547 -0.8313 0.0360
vn 0.8313 0.5547 0.0360
vn -0.5547 0.8313 0.0360
vn -0.1956 -0.9800 0.0360
vn 0.9800 -0.1956 0.0360
vn 0.1958 0.9807 -0.0000
vn 0.1956 0.9800 0.0360
vn -0.9801 0.1956 0.0342
vn -0.8314 -0.5547 0.0342
vn 0.5547 -0.8314 0.0342
vn 0.8314 0.5547 0.0342
vn -0.5547 0.8314 0.0342
vn -0.1956 -0.9801 0.0342
vn 0.9801 -0.1956 0.0342
vn 0.1956 0.9801 0.0342
vn -0.9806 0.1957 -0.0139
vn 0.1957 0.9806 -0.0139
vn 0.8318 0.5550 -0.0139
vn -0.8318 -0.5550 -0.0139
vn 0.0567 -0.0113 -0.9983
vn -0.0570 0.0114 0.9983
vn -0.0113 -0.0567 -0.9983
vn 0.0114 0.0570 0.9983
vn -0.0567 0.0113 -0.9983
vn 0.0322 -0.0483 0.9983
vn 0.0113 0.0567 -0.9983
vn -0.0483 -0.0322 0.9983
vn -0.0114 -0.0570 0.9983
vn 0.0481 0.0321 -0.9983
vn 0.0570 -0.0114 0.9983
vn -0.0321 0.0481 -0.9983
vn 0.0483 0.0322 0.9983
vn -0.0481 -0.0321 -0.9983
vn -0.0322 0.0483 0.9983
vn 0.0321 -0.0481 -0.9983
vn -0.5533 0.8292 0.0797
vn 0.9775 -0.1951 0.0797
vn -0.8292 -0.5533 0.0797
vn -0.9775 0.1951 0.0797
vn 0.1951 0.9775 0.0797
vn 0.5533 -0.8292 0.0797
vn 0.8292 0.5533 0.0797
vn -0.1951 -0.9775 0.0797
vn -0.0247 0.0370 0.9990
vn -0.0368 -0.0245 -0.9990
vn -0.0087 -0.0437 0.9990
vn -0.0245 0.0368 -0.9990
vn 0.0437 -0.0087 0.9990
vn -0.0087 -0.0434 -0.9990
vn 0.0370 0.0247 0.9990
vn 0.0434 -0.0087 -0.9990
vn 0.0087 0.0434 -0.9990
vn -0.0370 -0.0247 0.9990
vn 0.0245 -0.0368 -0.9990
vn 0.0087 0.0437 0.9990
vn -0.0434 0.0087 -0.9990
vn 0.0247 -0.0370 0.9990
vn 0.0368 0.0245 -0.9990
vn -0.0437 0.0087 0.9990
vn -0.1957 -0.9804 0.0243
vn 0.5542 -0.8322 -0.0194
vn 0.5549 -0.8316 0.0243
vn 0.1957 0.9804 0.0243
vn -0.9804 0.1957 0.0243
vn -0.0390 -0.0260 0.9989
vn 0.9804 -0.1957 0.0243
vn -0.5549 0.8316 0.0243
vn -0.0481 -0.0321 0.9983
vn -0.0562 0.0112 -0.9984
vn -0.0321 0.0481 0.9983
vn 0.0476 0.0318 -0.9984
vn -0.0113 -0.0567 0.9983
vn 0.0562 -0.0112 -0.9984
vn 0.0567 -0.0113 0.9983
vn -0.0112 -0.0562 -0.9984
vn -0.0117 -0.0587 0.9982
vn -0.0584 0.0117 -0.9982
vn 0.0587 -0.0117 0.9982
vn 0.0117 0.0584 -0.9982
vn 0.0498 0.0332 0.9982
vn 0.0330 -0.0495 -0.9982
vn -0.0332 0.0498 0.9982
vn -0.0495 -0.0330 -0.9982
vn -0.0117 -0.0584 -0.9982
vn -0.0587 0.0117 0.9982
vn 0.0584 -0.0117 -0.9982
vn 0.0117 0.0587 0.9982
vn 0.0495 0.0330 -0.9982
vn 0.0332 -0.0498 0.9982
vn -0.0330 0.0495 -0.9982
vn -0.0498 -0.0332 0.9982
vn 0.8316 0.5549 0.0243
vn 0.8302 0.5569 0.0239
vn 0.8315 0.5548 0.0305
vn 0.8329 0.5528 0.0239
vn -0.8316 -0.5549 0.0243
vn -0.8302 -0.5569 0.0239
vn -0.8315 -0.5548 0.0305
vn -0.8329 -0.5528 0.0239
vn 0.0192 0.0134 -0.9997
vn 0.0195 0.0130 0.9997
vn 0.8316 0.5549 0.0234
vn -0.8316 -0.5549 0.0234
vn 0.5548 -0.8319 0.0097
vn -0.0189 -0.0138 -0.9997
vn 0.5552 -0.8317 0.0097
vn -0.5548 0.8319 0.0097
vn -0.5552 0.8317 0.0097
vn -0.5557 0.8312 -0.0194
vn -0.5548 0.8319 -0.0097
vn 0.5557 -0.8312 -0.0194
vn 0.5548 -0.8319 -0.0097
vn -0.0390 -0.0260 -0.9989
vn 0.5552 -0.8317 -0.0097
vn 0.0390 0.0260 -0.9989
vn -0.5552 0.8317 -0.0097
vn -0.0190 -0.0138 -0.9997
vn 0.0390 0.0260 0.9989
vn -0.0960 0.8033 0.5878
vn -0.0219 -0.0146 -0.9997
vn -0.0202 0.1031 0.9945
vn 0.0456 0.0304 -0.9985
vn -0.0083 0.0247 0.9997
vn -0.0172 0.0259 -0.9995
vn -0.0288 0.0102 0.9995
vn 0.0064 0.0334 0.9994
vn -0.0225 -0.0220 0.9995
vn -0.0004 0.0018 -1.0000
vn 0.0131 -0.0592 0.9982
vn -0.1933 0.9803 0.0399
vn -0.9809 -0.1944 -0.0000
vn -0.0003 0.0014 -1.0000
vn -0.0020 0.0100 0.9999
vn 0.1943 -0.9801 0.0403
vn 0.0023 -0.0115 0.9999
vn -0.1943 0.9801 0.0403
vn 0.0537 -0.0107 -0.9985
vn 0.0338 0.0259 0.9991
vn -0.0061 -0.0305 -0.9995
vn 0.1952 -0.9799 0.0399
vn 0.1963 -0.9797 0.0398
vn -0.1922 0.9805 0.0398
vn -0.0147 0.0092 0.9998
vn 0.0231 -0.0346 -0.9991
vn 0.0029 0.0006 1.0000
vn 0.0081 0.0408 -0.9991
vn -0.0104 -0.0129 0.9999
vn 0.0184 -0.0269 0.9995
vn -0.1905 0.7052 -0.6829
vn -0.0258 0.0052 -0.9997
vn 0.1912 -0.6766 0.7111
vn 0.0152 -0.0294 0.9995
vn 0.0929 -0.7246 -0.6828
vn 0.0012 -0.0245 0.9997
vn 0.0002 -0.0010 1.0000
vn 0.1943 -0.9804 -0.0313
vn -0.1943 0.9804 -0.0313
vt 0.700397 0.391833
vt 0.690338 0.657191
vt 0.466041 0.657191
vt 0.455982 0.391833
vt 0.536238 0.391833
vt 0.526179 0.657191
vt 0.301881 0.657191
vt 0.291822 0.391833
vt 0.372078 0.391833
vt 0.362019 0.657191
vt 0.137722 0.657191
vt 0.127663 0.391833
vt 0.207919 0.391833
vt 0.197860 0.657191
vt -0.026437 0.657191
vt -0.036496 0.391833
vt 0.700174 0.391833
vt 0.690115 0.657191
vt 0.465818 0.657191
vt 0.455758 0.391833
vt 0.536015 0.391833
vt 0.525955 0.657191
vt 0.301658 0.657191
vt 0.291599 0.391833
vt 0.307711 0.492248
vt 0.494419 0.492248
vt 0.487480 0.584673
vt 0.314650 0.584674
vt 0.371856 0.391833
vt 0.361796 0.657191
vt 0.137499 0.657191
vt 0.127440 0.391833
vt 0.207696 0.391833
vt 0.197637 0.657191
vt -0.026660 0.657191
vt -0.036719 0.391833
vt 0.334967 0.368136
vt 0.479942 0.368136
vt 0.476604 0.558317
vt 0.338304 0.558317
vt 0.459701 0.492248
vt 0.646409 0.492248
vt 0.639470 0.584674
vt 0.466640 0.584673
vt 0.003110 0.492248
vt 0.189818 0.492248
vt 0.182879 0.584673
vt 0.010049 0.584674
vt 0.459908 0.492248
vt 0.646616 0.492248
vt 0.639677 0.584674
vt 0.466847 0.584673
vt 0.155514 0.492248
vt 0.342221 0.492248
vt 0.335283 0.584674
vt 0.162453 0.584673
vt 0.307504 0.492248
vt 0.494212 0.492248
vt 0.487273 0.584673
vt 0.314443 0.584674
vt 0.003317 0.492248
vt 0.190024 0.492248
vt 0.183086 0.584673
vt 0.010256 0.584674
vt 0.155307 0.492248
vt 0.342015 0.492248
vt 0.335076 0.584674
vt 0.162246 0.584673
vt 0.199816 0.558317
vt 0.338116 0.558317
vt 0.343887 0.556505
vt 0.194046 0.556505
vt 0.196479 0.368136
vt 0.341454 0.368136
vt 0.473079 0.368136
vt 0.618054 0.368136
vt 0.614716 0.558317
vt 0.476416 0.558317
vt 0.196667 0.368136
vt 0.341641 0.368136
vt 0.338304 0.558317
vt 0.200004 0.558317
vt 0.473267 0.368136
vt 0.618242 0.368136
vt 0.614904 0.558317
vt 0.476604 0.558317
vt 0.082971 0.534303
vt 0.080476 0.392150
vt 0.080476 0.392150
vt 0.334779 0.368136
vt 0.479754 0.368136
vt 0.476416 0.558317
vt 0.338116 0.558317
vt 0.025579 0.315540
vt 0.167762 0.315540
vt 0.167762 0.315558
vt 0.025579 0.315558
vt 0.319335 0.556628
vt 0.513721 0.556628
vt 0.516399 0.555644
vt 0.316657 0.555644
vt 0.165161 0.556628
vt 0.359547 0.556628
vt 0.362225 0.555645
vt 0.162483 0.555644
vt 0.343857 0.289060
vt 0.153465 0.289060
vt 0.150842 0.289296
vt 0.346480 0.289296
vt 0.496261 0.289060
vt 0.305869 0.289060
vt 0.303246 0.289296
vt 0.498884 0.289296
vt 0.011405 0.556628
vt 0.205792 0.556628
vt 0.208470 0.555644
vt 0.008727 0.555644
vt 0.648251 0.289060
vt 0.457860 0.289060
vt 0.455237 0.289296
vt 0.650874 0.289296
vt 0.319126 0.556628
vt 0.513512 0.556628
vt 0.516190 0.555644
vt 0.316448 0.555644
vt 0.191660 0.289060
vt 0.001268 0.289060
vt -0.001355 0.289296
vt 0.194283 0.289296
vt 0.000510 0.370378
vt 0.153183 0.370378
vt 0.149864 0.559556
vt 0.003830 0.559556
vt 0.273851 0.370378
vt 0.426524 0.370378
vt 0.423205 0.559556
vt 0.277171 0.559556
vt 0.000325 0.370378
vt 0.152998 0.370378
vt 0.149678 0.559556
vt 0.003644 0.559556
vt 0.410801 0.370378
vt 0.563474 0.370378
vt 0.560154 0.559555
vt 0.414120 0.559555
vt 0.137274 0.370378
vt 0.289947 0.370378
vt 0.286627 0.559555
vt 0.140593 0.559555
vt 0.410615 0.370378
vt 0.563288 0.370378
vt 0.559968 0.559555
vt 0.413934 0.559555
vt 0.137088 0.370378
vt 0.289761 0.370378
vt 0.286441 0.559555
vt 0.140408 0.559555
vt 0.274037 0.370378
vt 0.426710 0.370378
vt 0.423391 0.559556
vt 0.277357 0.559556
vt 0.151972 0.827562
vt 0.251874 0.827562
vt 0.251874 0.832922
vt 0.151972 0.832922
vt 0.443692 0.971844
vt 0.499972 0.971844
vt 0.556253 0.971844
vt 0.565760 0.994798
vt 0.434184 0.994798
vt 0.482187 0.556505
vt 0.332346 0.556505
vt 0.370782 0.785245
vt 0.370782 0.886630
vt 0.350107 0.895194
vt 0.350107 0.776681
vt 0.620487 0.556505
vt 0.470646 0.556505
vt 0.442472 0.958320
vt 0.433908 0.978995
vt 0.364100 0.892251
vt 0.403896 0.932048
vt 0.341145 0.901759
vt 0.061704 0.558317
vt 0.200004 0.558317
vt 0.205775 0.556505
vt 0.055934 0.556505
vt 0.332346 0.557229
vt 0.482187 0.557229
vt 0.482187 0.585499
vt 0.332346 0.585499
vt 0.055934 0.557229
vt 0.205775 0.557229
vt 0.205775 0.585499
vt 0.055934 0.585499
vt 0.332534 0.557229
vt 0.482375 0.557229
vt 0.482375 0.585499
vt 0.332534 0.585499
vt 0.194046 0.557229
vt 0.343887 0.557229
vt 0.343887 0.585499
vt 0.194046 0.585499
vt 0.470646 0.557229
vt 0.620487 0.557229
vt 0.620487 0.585499
vt 0.470646 0.585499
vt 0.194234 0.557229
vt 0.344075 0.557229
vt 0.344075 0.585499
vt 0.194234 0.585499
vt 0.470834 0.557229
vt 0.620675 0.557229
vt 0.620675 0.585499
vt 0.470834 0.585499
vt 0.055746 0.557229
vt 0.205587 0.557229
vt 0.205587 0.585499
vt 0.055746 0.585499
vt 0.543856 0.958320
vt 0.552420 0.978995
vt 0.061516 0.558317
vt 0.199816 0.558317
vt 0.205587 0.556505
vt 0.055746 0.556505
vt 0.620675 0.556505
vt 0.470834 0.556505
vt 0.364100 0.779691
vt 0.364100 0.835971
vt 0.341145 0.770183
vt 0.482375 0.556505
vt 0.332534 0.556505
vt 0.615546 0.886630
vt 0.636221 0.895194
vt 0.344075 0.556505
vt 0.194234 0.556505
vt 0.443692 0.700099
vt 0.403896 0.739895
vt 0.434184 0.677144
vt 0.433723 0.897229
vt 0.495507 0.922822
vt 0.497337 0.942745
vt 0.418340 0.910023
vt -0.005789 0.827562
vt 0.094112 0.827562
vt 0.094112 0.832922
vt -0.005789 0.832922
vt 0.151865 0.827562
vt 0.251767 0.827562
vt 0.251767 0.832922
vt 0.151865 0.832922
vt -0.005896 0.827562
vt 0.094005 0.827562
vt 0.094005 0.832922
vt -0.005896 0.832922
vt 0.230853 0.827562
vt 0.330755 0.827561
vt 0.330755 0.832922
vt 0.230853 0.832922
vt 0.073092 0.827562
vt 0.172993 0.827561
vt 0.172993 0.832922
vt 0.073092 0.832922
vt 0.230746 0.827562
vt 0.330647 0.827561
vt 0.330647 0.832922
vt 0.230746 0.832922
vt 0.072985 0.827562
vt 0.172886 0.827561
vt 0.172886 0.832922
vt 0.072985 0.832922
vt 0.442472 0.713555
vt 0.433908 0.692880
vt 0.596049 0.932048
vt 0.635845 0.892251
vt 0.658799 0.901759
vt 0.543856 0.713555
vt 0.552420 0.692880
vt 0.635845 0.835971
vt 0.635845 0.779691
vt 0.658799 0.770183
vt 0.615546 0.785245
vt 0.636221 0.776681
vt 0.596049 0.739895
vt 0.556253 0.700099
vt 0.565760 0.677144
vt 0.499972 0.700099
vt 0.410762 0.872923
vt 0.463020 0.925181
vt 0.448027 0.961379
vt 0.411296 0.924648
vt 0.374565 0.887917
vt 0.536924 0.925181
vt 0.551918 0.961379
vt 0.499972 0.961379
vt 0.589182 0.872923
vt 0.625380 0.887917
vt 0.588649 0.924648
vt 0.589182 0.799019
vt 0.625380 0.784026
vt 0.625380 0.835971
vt 0.536924 0.746761
vt 0.551918 0.710564
vt 0.588649 0.747295
vt 0.463020 0.746761
vt 0.448027 0.710564
vt 0.499972 0.710564
vt 0.410762 0.799019
vt 0.374565 0.784026
vt 0.411296 0.747295
vt 0.374565 0.835971
vt 0.564049 0.896152
vt 0.528627 0.863384
vt 0.541422 0.832491
vt 0.589640 0.834367
vt 0.584254 0.832136
vt 0.558662 0.893921
vt 0.555097 0.902527
vt 0.587819 0.823530
vt 0.406192 0.833507
vt 0.431784 0.895291
vt 0.418990 0.910674
vt 0.386269 0.831676
vt 0.435093 0.893921
vt 0.409501 0.832136
vt 0.405936 0.823530
vt 0.438658 0.902527
vt 0.431784 0.768981
vt 0.406192 0.830766
vt 0.386269 0.832596
vt 0.418990 0.753599
vt 0.435093 0.770352
vt 0.496878 0.744760
vt 0.505484 0.741194
vt 0.426486 0.773916
vt 0.495507 0.741451
vt 0.433723 0.767043
vt 0.418340 0.754249
vt 0.497337 0.721527
vt 0.558662 0.770352
vt 0.584254 0.832136
vt 0.587819 0.840743
vt 0.555097 0.761745
vt 0.224221 0.830010
vt 0.224221 0.999433
vt 0.181811 0.999433
vt 0.181811 0.830010
vt 0.560893 0.764965
vt 0.528125 0.800388
vt 0.497232 0.787591
vt 0.499109 0.739373
vt 0.491812 0.819906
vt 0.527548 0.862493
vt 0.496656 0.875289
vt 0.429707 0.768121
vt 0.465129 0.800889
vt 0.452333 0.831781
vt 0.404114 0.829905
vt 0.494647 0.739373
vt 0.496523 0.787591
vt 0.465631 0.800388
vt 0.432862 0.764965
vt 0.494646 0.924899
vt 0.432862 0.899307
vt 0.465631 0.863885
vt 0.496523 0.876681
vt 0.589641 0.829905
vt 0.541422 0.831782
vt 0.528626 0.800889
vt 0.564048 0.768120
vt 0.404114 0.834367
vt 0.452333 0.832491
vt 0.465129 0.863383
vt 0.429707 0.896152
vt 0.496656 0.788984
vt 0.527548 0.801779
vt 0.491812 0.844366
vt 0.527234 0.801466
vt 0.540030 0.832358
vt 0.484647 0.837202
vt 0.497232 0.876681
vt 0.528125 0.863885
vt 0.560893 0.899307
vt 0.499109 0.924899
vt 0.466521 0.862807
vt 0.453725 0.831914
vt 0.509108 0.827070
vt 0.453725 0.832358
vt 0.466521 0.801466
vt 0.509108 0.837202
vt 0.466207 0.801780
vt 0.497099 0.788983
vt 0.501943 0.844366
vt 0.540030 0.831914
vt 0.527234 0.862807
vt 0.484647 0.827070
vt 0.497099 0.875289
vt 0.466207 0.862493
vt 0.501944 0.819906
vt 0.224149 0.833778
vt 0.224048 0.998793
vt 0.182700 0.998638
vt 0.182893 0.833694
vt 0.182893 0.833694
vt 0.567269 0.890356
vt 0.488271 0.923077
vt 0.488271 0.923078
vt 0.567269 0.890356
vt 0.505484 0.923078
vt 0.426486 0.890356
vt 0.426486 0.890356
vt 0.505484 0.923078
vt 0.405936 0.840742
vt 0.438658 0.761745
vt 0.438658 0.761745
vt 0.405936 0.840742
vt 0.488271 0.741195
vt 0.567269 0.773917
vt 0.567269 0.773917
vt 0.488271 0.741195
vt 0.587819 0.823529
vt 0.555097 0.902527
vt 0.555097 0.902527
vt 0.587819 0.823530
vt 0.438658 0.902527
vt 0.405936 0.823530
vt 0.405936 0.823530
vt 0.438658 0.902528
vt 0.426486 0.773916
vt 0.505484 0.741195
vt 0.505484 0.741195
vt 0.426486 0.773916
vt 0.555097 0.761746
vt 0.587819 0.840743
vt 0.587819 0.840743
vt 0.555097 0.761745
vt 0.498248 0.922822
vt 0.560033 0.897229
vt 0.575415 0.910024
vt 0.496418 0.942746
vt 0.496878 0.744760
vt 0.558662 0.770352
vt 0.567269 0.773917
vt 0.488271 0.741195
vt 0.561971 0.895291
vt 0.587563 0.833507
vt 0.607486 0.831676
vt 0.574765 0.910674
vt 0.409501 0.832136
vt 0.435093 0.770352
vt 0.438658 0.761745
vt 0.405936 0.840742
vt 0.587563 0.830766
vt 0.561971 0.768981
vt 0.574765 0.753599
vt 0.607486 0.832596
vt 0.496877 0.919513
vt 0.435093 0.893921
vt 0.426486 0.890356
vt 0.505484 0.923078
vt 0.560033 0.767043
vt 0.498248 0.741451
vt 0.496418 0.721527
vt 0.575415 0.754249
vt 0.558662 0.893921
vt 0.496878 0.919513
vt 0.488271 0.923078
vt 0.567268 0.890356
vt 0.555379 0.895281
vt 0.555379 0.895281
vt 0.555379 0.895281
vt 0.433733 0.890638
vt 0.433733 0.890638
vt 0.555379 0.768992
vt 0.500161 0.746120
vt 0.527770 0.757556
vt 0.556476 0.894827
vt 0.499064 0.918608
vt 0.527770 0.906717
vt 0.556476 0.894827
vt 0.434187 0.891735
vt 0.410406 0.834322
vt 0.410406 0.834322
vt 0.422297 0.863029
vt 0.434187 0.891735
vt 0.555379 0.768992
vt 0.500161 0.746120
vt 0.438376 0.895281
vt 0.493594 0.918153
vt 0.465985 0.906717
vt 0.761209 0.623917
vt 0.924058 0.623917
vt 0.927295 0.687536
vt 0.757973 0.687536
vt 0.927295 0.687536
vt 0.757973 0.687536
vt 0.260387 0.973445
vt 0.078090 0.973448
vt 0.087770 0.964130
vt 0.250692 0.964131
vt 0.078091 0.973448
vt 0.081418 0.730829
vt 0.090741 0.740152
vt 0.087771 0.964130
vt 0.256736 0.730935
vt 0.247423 0.740244
vt 0.260387 0.973445
vt 0.250693 0.964131
vt 0.077934 0.717510
vt 0.260231 0.717507
vt 0.250550 0.726825
vt 0.087628 0.726824
vt 0.260230 0.717507
vt 0.256903 0.960126
vt 0.247580 0.950803
vt 0.250550 0.726825
vt 0.081585 0.960019
vt 0.090897 0.950711
vt 0.077934 0.717509
vt 0.087628 0.726824
vt 0.087770 0.964130
vt 0.078091 0.973448
vt 0.081418 0.730829
vt 0.260387 0.973445
vt 0.260387 0.973445
vt 0.078090 0.973448
vt 0.087770 0.964130
vt 0.250693 0.964131
vt 0.078091 0.973448
vt 0.087771 0.964130
vt 0.256736 0.730935
vt 0.247423 0.740244
vt 0.260387 0.973446
vt 0.250693 0.964131
vt 0.077934 0.717510
vt 0.260231 0.717507
vt 0.250550 0.726825
vt 0.087628 0.726824
vt 0.260230 0.717507
vt 0.256903 0.960126
vt 0.247580 0.950803
vt 0.250550 0.726825
vt 0.090897 0.950711
vt 0.077934 0.717509
vt 0.087628 0.726824
vt 0.077942 0.717295
vt 0.259812 0.717238
vt 0.250160 0.726544
vt 0.087620 0.726593
vt 0.259808 0.717263
vt 0.256345 0.960399
vt 0.247008 0.950302
vt 0.250155 0.726554
vt 0.081726 0.960240
vt 0.091042 0.950162
vt 0.169026 0.951360
vt 0.077941 0.717317
vt 0.087620 0.726601
vt 0.736475 0.696481
vt 0.814251 0.696875
vt 0.812700 0.867375
vt 0.738281 0.867762
vt 0.736424 0.696101
vt 0.813479 0.696567
vt 0.812556 0.866820
vt 0.738842 0.867163
vt 0.736475 0.696481
vt 0.410861 0.835420
vt 0.410861 0.835420
vt 0.410861 0.835420
vt 0.500161 0.918153
vt 0.500161 0.918153
vt 0.500161 0.918153
vt 0.559568 0.772538
vt 0.583349 0.829950
vt 0.583349 0.829950
vt 0.571458 0.801244
vt 0.559568 0.772538
vt 0.410406 0.829950
vt 0.434188 0.772538
vt 0.434187 0.772538
vt 0.422297 0.801244
vt 0.410406 0.829950
vt 0.422297 0.863029
vt 0.527770 0.906717
vt 0.560022 0.773635
vt 0.410861 0.828853
vt 0.410861 0.828853
vt 0.582894 0.828853
vt 0.582894 0.828853
vt 0.582894 0.828853
vt 0.433733 0.773635
vt 0.433733 0.773635
vt 0.583349 0.834322
vt 0.559568 0.891735
vt 0.559568 0.891735
vt 0.571458 0.863029
vt 0.583349 0.834323
vt 0.571458 0.801244
vt 0.422297 0.801244
vt 0.582894 0.835420
vt 0.582894 0.835420
vt 0.582894 0.835420
vt 0.560022 0.890638
vt 0.437279 0.769446
vt 0.494691 0.745665
vt 0.494691 0.745665
vt 0.465985 0.757556
vt 0.437279 0.769446
vt 0.494691 0.918608
vt 0.437279 0.894827
vt 0.437279 0.894827
vt 0.494692 0.918608
vt 0.571458 0.863029
vt 0.438376 0.768992
vt 0.438376 0.768992
vt 0.493594 0.918153
vt 0.493594 0.918153
vt 0.493594 0.746120
vt 0.493594 0.746120
vt 0.493594 0.746120
vt 0.438376 0.895281
vt 0.438376 0.895281
vt 0.499064 0.745665
vt 0.556476 0.769446
vt 0.556476 0.769446
vt 0.527770 0.757556
vt 0.499064 0.745665
vt 0.465985 0.757556
vt 0.738788 0.867064
vt 0.739403 0.696174
vt 0.816521 0.696648
vt 0.813169 0.866486
vt 0.739444 0.696488
vt 0.817219 0.696881
vt 0.272722 0.295406
vt 0.428026 0.295406
vt 0.427128 0.346599
vt 0.273620 0.346599
vt 0.135772 0.295406
vt 0.291077 0.295406
vt 0.290178 0.346599
vt 0.136671 0.346598
vt 0.409299 0.295406
vt 0.564604 0.295406
vt 0.563705 0.346599
vt 0.410198 0.346598
vt 0.135958 0.295406
vt 0.291262 0.295406
vt 0.290364 0.346599
vt 0.136857 0.346598
vt 0.409485 0.295406
vt 0.564789 0.295406
vt 0.563891 0.346599
vt 0.410384 0.346598
vt -0.000991 0.295406
vt 0.154313 0.295406
vt 0.153415 0.346599
vt -0.000093 0.346599
vt 0.272536 0.295406
vt 0.427840 0.295406
vt 0.426942 0.346599
vt 0.273434 0.346599
vt -0.000805 0.295406
vt 0.154499 0.295406
vt 0.153601 0.346599
vt 0.000093 0.346599
vt 0.566673 0.345820
vt 0.407602 0.345820
vt 0.407848 0.370461
vt 0.566054 0.370461
vt 0.293146 0.345820
vt 0.134075 0.345820
vt 0.134322 0.370461
vt 0.292527 0.370461
vt 0.566487 0.345820
vt 0.407416 0.345820
vt 0.271271 0.370461
vt 0.429477 0.370461
vt 0.292960 0.345820
vt 0.133889 0.345820
vt -0.002256 0.370461
vt 0.155950 0.370461
vt 0.270838 0.345820
vt 0.429909 0.345820
vt 0.429477 0.370461
vt 0.271271 0.370461
vt 0.133889 0.345820
vt 0.292960 0.345820
vt 0.292528 0.370461
vt 0.134322 0.370461
vt 0.407416 0.345820
vt 0.566054 0.370461
vt 0.407849 0.370461
vt 0.134075 0.345820
vt 0.292713 0.370461
vt 0.134507 0.370461
vt 0.407602 0.345820
vt 0.566240 0.370461
vt 0.408035 0.370461
vt -0.002874 0.345820
vt 0.156196 0.345820
vt 0.155764 0.370461
vt -0.002442 0.370461
vt 0.270653 0.345820
vt 0.429723 0.345820
vt 0.429291 0.370461
vt 0.271085 0.370461
vt -0.002688 0.345820
vt 0.156382 0.345820
vt 0.155950 0.370461
vt -0.002256 0.370461
vt 0.134507 0.370461
vt 0.292713 0.370461
vt 0.156196 0.345820
vt -0.002874 0.345820
vt 0.408034 0.370461
vt 0.566240 0.370461
vt 0.429723 0.345820
vt 0.270653 0.345820
vt -0.002442 0.370461
vt 0.155764 0.370461
vt 0.156382 0.345820
vt -0.002688 0.345820
vt 0.271085 0.370461
vt 0.429291 0.370461
vt 0.429909 0.345820
vt 0.270838 0.345820
vt 0.311344 0.287603
vt 0.521712 0.287603
vt 0.519992 0.345512
vt 0.313064 0.345512
vt 0.465099 0.287603
vt 0.675467 0.287603
vt 0.673747 0.345512
vt 0.466819 0.345512
vt 0.003205 0.287603
vt 0.213573 0.287603
vt 0.211853 0.345512
vt 0.004925 0.345512
vt 0.465309 0.287603
vt 0.675677 0.287603
vt 0.673957 0.345512
vt 0.467029 0.345512
vt 0.157379 0.287603
vt 0.367747 0.287603
vt 0.366027 0.345512
vt 0.159099 0.345512
vt 0.311135 0.287603
vt 0.521503 0.287603
vt 0.519783 0.345512
vt 0.312855 0.345512
vt 0.003415 0.287603
vt 0.213782 0.287603
vt 0.212062 0.345512
vt 0.005135 0.345512
vt 0.157170 0.287603
vt 0.367538 0.287603
vt 0.365818 0.345512
vt 0.158890 0.345512
vt 0.519050 0.370159
vt 0.313587 0.370159
vt 0.309224 0.369746
vt 0.523414 0.369746
vt 0.216457 0.344053
vt 0.000740 0.344052
vt 0.365295 0.370159
vt 0.159831 0.370159
vt 0.155468 0.369746
vt 0.369658 0.369746
vt 0.524177 0.344053
vt 0.308461 0.344052
vt 0.673225 0.370159
vt 0.467761 0.370159
vt 0.463398 0.369746
vt 0.677588 0.369746
vt 0.370421 0.344053
vt 0.154705 0.344053
vt 0.211121 0.370159
vt 0.005657 0.370159
vt 0.001294 0.369746
vt 0.215484 0.369746
vt 0.678351 0.344053
vt 0.462635 0.344053
vt 0.308670 0.344052
vt 0.524386 0.344053
vt 0.523623 0.369746
vt 0.309433 0.369746
vt 0.462425 0.344053
vt 0.678141 0.344053
vt 0.677378 0.369746
vt 0.463188 0.369746
vt 0.000531 0.344052
vt 0.216247 0.344053
vt 0.001294 0.369746
vt 0.462635 0.344053
vt 0.678351 0.344053
vt 0.677588 0.369746
vt 0.463398 0.369746
vt 0.154705 0.344053
vt 0.370421 0.344053
vt 0.369658 0.369746
vt 0.155468 0.369746
vt 0.308461 0.344052
vt 0.524177 0.344053
vt 0.309224 0.369746
vt 0.000740 0.344052
vt 0.216457 0.344053
vt 0.215693 0.369746
vt 0.001504 0.369746
vt 0.154496 0.344053
vt 0.370212 0.344053
vt 0.369449 0.369746
vt 0.155259 0.369746
vt 0.370212 0.344053
vt 0.154496 0.344053
vt 0.211330 0.370159
vt 0.005867 0.370159
vt 0.001504 0.369746
vt 0.215693 0.369746
vt 0.524386 0.344053
vt 0.308670 0.344052
vt 0.365086 0.370159
vt 0.159622 0.370159
vt 0.155259 0.369746
vt 0.369449 0.369746
vt 0.678142 0.344053
vt 0.462425 0.344053
vt 0.519260 0.370159
vt 0.313796 0.370159
vt 0.309433 0.369746
vt 0.216247 0.344053
vt 0.000531 0.344052
vt 0.673015 0.370159
vt 0.467552 0.370159
vt 0.463188 0.369746
vt 0.677378 0.369746
vt 0.342015 0.492248
vt 0.155307 0.492248
vt 0.082783 0.534303
vt 0.080288 0.392150
vt 0.080288 0.392150
vt 0.305662 0.289060
vt 0.496054 0.289060
vt 0.494212 0.492248
vt 0.307504 0.492248
vt 0.153672 0.289060
vt 0.344063 0.289060
vt 0.342221 0.492248
vt 0.155514 0.492248
vt 0.458067 0.289060
vt 0.648458 0.289060
vt 0.646616 0.492248
vt 0.459908 0.492248
vt 0.181232 0.392150
vt 0.646409 0.492248
vt 0.459701 0.492248
vt 0.494419 0.492248
vt 0.307711 0.492248
vt 0.667476 0.556628
vt 0.473090 0.556628
vt 0.205582 0.556628
vt 0.011196 0.556628
vt 0.667686 0.556628
vt 0.473300 0.556628
vt 0.359756 0.556628
vt 0.165370 0.556628
vt 0.162483 0.555644
vt 0.362225 0.555644
vt 0.361309 0.586493
vt 0.163399 0.586493
vt 0.008727 0.555644
vt 0.208470 0.555644
vt 0.207553 0.586493
vt 0.009644 0.586493
vt 0.316448 0.555644
vt 0.515273 0.586493
vt 0.317364 0.586493
vt 0.162692 0.555644
vt 0.362434 0.555644
vt 0.361518 0.586493
vt 0.163608 0.586493
vt 0.470622 0.555644
vt 0.670364 0.555644
vt 0.669447 0.586493
vt 0.471538 0.586493
vt 0.008518 0.555644
vt 0.208260 0.555644
vt 0.207344 0.586493
vt 0.009434 0.586493
vt 0.470412 0.555644
vt 0.670154 0.555644
vt 0.669238 0.586493
vt 0.471328 0.586493
vt 0.316657 0.555644
vt 0.515483 0.586493
vt 0.317573 0.586493
vt 0.191866 0.289060
vt 0.001475 0.289060
vt -0.001148 0.289296
vt 0.194489 0.289296
vt 0.670154 0.555645
vt 0.470412 0.555644
vt 0.303039 0.289296
vt 0.498677 0.289296
vt 0.208260 0.555644
vt 0.008518 0.555644
vt 0.151049 0.289296
vt 0.346686 0.289296
vt 0.670364 0.555645
vt 0.470622 0.555644
vt 0.455444 0.289296
vt 0.651081 0.289296
vt 0.362434 0.555645
vt 0.162692 0.555644
vt 0.193865 0.368233
vt 0.344443 0.368233
vt 0.472671 0.344869
vt 0.618462 0.344869
vt 0.621279 0.344067
vt 0.469853 0.344067
vt 0.470465 0.368233
vt 0.621043 0.368233
vt 0.196071 0.344869
vt 0.341862 0.344869
vt 0.344679 0.344067
vt 0.193253 0.344067
vt 0.203154 0.368136
vt 0.058179 0.368136
vt 0.055377 0.368233
vt 0.205955 0.368233
vt 0.334559 0.344869
vt 0.480350 0.344869
vt 0.483167 0.344067
vt 0.331741 0.344067
vt 0.331977 0.368233
vt 0.482555 0.368233
vt 0.057959 0.344869
vt 0.203750 0.344869
vt 0.206567 0.344067
vt 0.055141 0.344067
vt 0.333617 0.291200
vt 0.481292 0.291200
vt 0.195129 0.291200
vt 0.342804 0.291200
vt 0.471729 0.291200
vt 0.619404 0.291200
vt 0.195317 0.291200
vt 0.342991 0.291200
vt 0.342050 0.344869
vt 0.196259 0.344869
vt 0.471917 0.291200
vt 0.619592 0.291200
vt 0.618650 0.344869
vt 0.472859 0.344869
vt 0.056829 0.291200
vt 0.204504 0.291200
vt 0.203562 0.344869
vt 0.057771 0.344869
vt 0.333429 0.291200
vt 0.481104 0.291200
vt 0.480162 0.344869
vt 0.334371 0.344869
vt 0.057017 0.291200
vt 0.204691 0.291200
vt 0.055141 0.344067
vt 0.206567 0.344067
vt 0.206143 0.368233
vt 0.055565 0.368233
vt 0.331553 0.344067
vt 0.482979 0.344067
vt 0.482555 0.368233
vt 0.331977 0.368233
vt 0.054953 0.344067
vt 0.206379 0.344067
vt 0.205955 0.368233
vt 0.055377 0.368233
vt 0.470041 0.344067
vt 0.621467 0.344067
vt 0.621043 0.368233
vt 0.470465 0.368233
vt 0.193441 0.344067
vt 0.344867 0.344067
vt 0.344443 0.368233
vt 0.193865 0.368233
vt 0.469853 0.344067
vt 0.621279 0.344067
vt 0.620855 0.368233
vt 0.470277 0.368233
vt 0.193253 0.344067
vt 0.344679 0.344067
vt 0.344255 0.368233
vt 0.193677 0.368233
vt 0.331741 0.344067
vt 0.483167 0.344067
vt 0.482743 0.368233
vt 0.332165 0.368233
vt 0.344867 0.344067
vt 0.193441 0.344067
vt 0.470277 0.368233
vt 0.620855 0.368233
vt 0.621467 0.344067
vt 0.470041 0.344067
vt 0.193677 0.368233
vt 0.344255 0.368233
vt 0.206379 0.344067
vt 0.054953 0.344067
vt 0.332165 0.368233
vt 0.482743 0.368233
vt 0.482979 0.344067
vt 0.331553 0.344067
vt 0.203341 0.368136
vt 0.058367 0.368136
vt 0.055565 0.368233
vt 0.206143 0.368233
vt 0.181044 0.392150
vt 0.178550 0.534303
vt 0.178738 0.534303
vt 0.190024 0.492248
vt 0.166401 0.471136
vt 0.166566 0.452209
vt 0.003317 0.492248
vt 0.026941 0.471136
vt 0.166401 0.471136
vt 0.026774 0.452135
vt 0.167556 0.315540
vt 0.025372 0.315540
vt 0.189818 0.492248
vt 0.166194 0.471136
vt 0.166356 0.452655
vt 0.003110 0.492248
vt 0.026734 0.471136
vt 0.166194 0.471136
vt 0.026571 0.452503
vt 0.026774 0.452135
vt 0.166566 0.452209
vt 0.026734 0.471090
vt 0.166194 0.471090
vt 0.026774 0.452135
vt 0.166401 0.471136
vt 0.026941 0.471136
vt 0.026571 0.452503
vt 0.166356 0.452655
vt 0.166194 0.471136
vt 0.026734 0.471136
vt 0.026941 0.471090
vt 0.166401 0.471090
vt 0.026789 0.452132
vt 0.026955 0.471133
vt 0.166356 0.452655
vt 0.166356 0.452655
vt 0.166179 0.471133
vt 0.166341 0.452652
vt 0.026585 0.452499
vt 0.026748 0.471133
vt 0.166386 0.471133
vt 0.166552 0.452206
vt 0.825950 0.693364
vt 0.928448 0.693852
vt 0.927715 0.866187
vt 0.825711 0.866679
vt 0.731171 0.693088
vt 0.931818 0.693088
vt 0.930132 0.866892
vt 0.732858 0.866799
vt 0.731171 0.693088
vt 0.931818 0.693088
vt 0.930127 0.867459
vt 0.732862 0.867267
vt 0.167556 0.315558
vt 0.025372 0.315558
vt 0.025529 0.315551
vt 0.026725 0.452146
vt 0.025323 0.315551
vt 0.026521 0.452514
vt 0.166616 0.452221
vt 0.167812 0.315551
vt 0.026774 0.452135
vt 0.166566 0.452209
vt 0.166405 0.452667
vt 0.167605 0.315551
vt 0.026571 0.452503
vt 0.593998 0.032955
vt 0.578189 0.030093
vt 0.579040 0.029862
vt 0.609436 0.035095
vt -0.050954 0.010435
vt 0.222377 0.010435
vt 0.223497 0.009618
vt -0.053285 0.009618
vt 0.493581 0.465600
vt 0.517837 0.467614
vt 0.515562 0.491815
vt 0.490680 0.489720
vt 0.085488 0.010435
vt 0.222154 0.010435
vt 0.224485 0.009956
vt 0.086094 0.009956
vt 0.549637 0.032484
vt 0.278056 0.034576
vt 0.277804 0.034163
vt 0.552813 0.032043
vt 0.277141 0.010435
vt 0.550473 0.010435
vt 0.553659 0.009717
vt 0.276877 0.009717
vt 0.164066 0.838284
vt 0.009953 0.890560
vt 0.016258 0.799965
vt 0.164070 0.808263
vt 0.578189 0.368339
vt 0.701238 0.369644
vt 0.385399 0.034576
vt 0.113894 0.034501
vt 0.113642 0.034227
vt 0.388574 0.034303
vt 0.318175 0.890560
vt 0.311873 0.799991
vt -0.037560 0.369644
vt 0.085488 0.368133
vt 0.791508 0.556635
vt 0.750750 0.556634
vt 0.750747 0.542578
vt 0.791511 0.542577
vt 0.617263 0.470616
vt 0.641644 0.470443
vt 0.642718 0.494757
vt 0.617879 0.494930
vt 0.221551 0.369684
vt 0.221551 0.031941
vt 0.268261 0.034545
vt 0.298308 0.346276
vt 0.297287 0.361850
vt 0.975257 0.509285
vt 0.829107 0.509442
vt 0.829222 0.490558
vt 0.974528 0.492094
vt 0.725897 0.560786
vt 0.825094 0.560786
vt 0.825091 0.584932
vt 0.725900 0.584931
vt 0.018551 0.763622
vt 0.164059 0.771858
vt 0.682948 0.507920
vt 0.683896 0.490558
vt 0.254645 0.345065
vt 0.255285 0.360636
vt 0.227068 0.369684
vt 0.221551 0.354681
vt 0.309660 0.763959
vt 0.924296 0.560788
vt 0.924300 0.584932
vt 0.330553 0.355607
vt 0.325979 0.369460
vt 0.441524 0.010435
vt 0.578189 0.010435
vt 0.577584 0.009956
vt 0.439193 0.009956
vt 0.224485 0.009956
vt 0.223561 0.034326
vt 0.086094 0.033903
vt 0.086094 0.009956
vt 0.389500 0.009857
vt 0.388574 0.034303
vt 0.113642 0.034227
vt 0.112718 0.009857
vt 0.064269 0.320465
vt 0.071879 0.025779
vt 0.109890 0.028819
vt 0.099621 0.337880
vt 0.631972 0.320776
vt 0.702172 0.323987
vt 0.702194 0.343125
vt 0.596623 0.338244
vt -0.005985 0.323989
vt -0.005963 0.343125
vt 0.221242 0.034501
vt 0.085488 0.034084
vt 0.086094 0.033903
vt 0.223561 0.034326
vt 0.586273 0.026754
vt 0.624354 0.025779
vt 0.631972 0.320776
vt 0.553659 0.009717
vt 0.552813 0.032043
vt 0.277804 0.034163
vt 0.276877 0.009717
vt 0.278255 0.033955
vt 0.549801 0.034056
vt 0.442419 0.034056
vt 0.113205 0.010435
vt 0.386536 0.010435
vt 0.386800 0.009717
vt 0.110018 0.009717
vt 0.442136 0.032484
vt 0.713867 0.030609
vt -0.024611 0.031384
vt 0.247133 0.032911
vt 0.233498 0.392608
vt -0.010918 0.392608
vt 0.284717 0.032665
vt 0.332104 0.031941
vt 0.332104 0.368940
vt 0.114028 0.032136
vt 0.385645 0.033955
vt 0.716962 0.009618
vt 0.716188 0.030047
vt 0.441027 0.031944
vt 0.440180 0.009618
vt 0.223497 0.009618
vt 0.222664 0.031592
vt -0.052511 0.030047
vt -0.053285 0.009618
vt 0.385898 0.033534
vt 0.110851 0.031692
vt 0.110018 0.009717
vt 0.550960 0.009857
vt 0.550054 0.033776
vt 0.275080 0.033674
vt 0.274177 0.009857
vt 0.577584 0.009956
vt 0.577584 0.029862
vt 0.440100 0.033875
vt 0.439193 0.009956
vt 0.084636 0.009955
vt 0.084636 0.033902
vt 0.054038 0.030747
vt 0.054476 0.017193
vt 0.054824 0.006406
vt 0.631123 0.032069
vt 0.592561 0.033056
vt 0.592190 0.021891
vt 0.709945 0.027389
vt 0.709945 0.035849
vt 0.071048 0.035147
vt 0.032556 0.032069
vt -0.046267 0.035849
vt -0.046267 0.027389
vt 0.071498 0.021592
vt 0.609572 0.028657
vt 0.579042 0.029861
vt 0.579042 0.009955
vt 0.608853 0.006406
vt 0.609211 0.017492
vt 0.716188 0.030047
vt 0.277364 0.010435
vt 0.550696 0.010435
vt 0.550960 0.009857
vt 0.274177 0.009857
vt 0.567488 0.470178
vt 0.566739 0.494620
vt 0.112982 0.010435
vt 0.386314 0.010435
vt 0.389500 0.009857
vt 0.112718 0.009857
vt 0.221555 0.032136
vt -0.050190 0.030609
vt -0.052511 0.030047
vt 0.550054 0.033776
vt 0.070390 0.010982
vt 0.084636 0.009955
vt 0.054843 0.010728
vt 0.441300 0.010435
vt 0.714632 0.010435
vt 0.716963 0.009618
vt 0.440180 0.009618
vt 0.069613 0.035020
vt 0.054073 0.035642
vt 0.084637 0.033903
vt 0.440100 0.033875
vt 0.577584 0.029862
vt 0.593288 0.010982
vt 0.608835 0.010728
vt 0.579042 0.009955
vt 0.110851 0.031692
vt 0.385898 0.033534
vt -0.046267 0.016470
vt 0.071857 0.010805
vt 0.621203 0.002917
vt 0.621561 0.014003
vt 0.591821 0.010805
vt 0.709945 0.016470
vt 0.642732 0.455786
vt 0.567261 0.453581
vt 0.567828 0.434270
vt 0.643293 0.436476
vt 0.042126 0.013704
vt 0.042475 0.002917
vt 0.491803 0.451375
vt 0.492364 0.432065
vt 0.833051 0.006520
vt 0.829217 0.369160
vt 0.711272 0.369193
vt 0.702985 0.006539
vt 0.969318 0.009312
vt 0.962747 0.366093
vt 0.632105 0.031980
vt 0.639723 0.326977
vt 0.832303 0.556635
vt 0.832301 0.542579
vt 0.031574 0.031980
vt 0.023964 0.326666
vt 0.518682 0.452162
vt 0.567944 0.454667
vt 0.617266 0.455042
s 0
f 430/1/1 1/2/1 3/3/1 431/4/1
f 431/5/2 3/6/2 5/7/2 432/8/2
f 432/9/3 5/10/3 7/11/3 433/12/3
f 433/13/4 7/14/4 9/15/4 434/16/4
f 434/17/5 9/18/5 11/19/5 435/20/5
f 435/21/6 11/22/6 13/23/6 436/24/6
f 325/25/7 322/26/7 16/27/7 18/28/7
f 436/29/8 13/30/8 15/31/8 437/32/8
f 437/33/9 15/34/9 1/35/9 430/36/9
f 358/37/10 354/38/10 24/39/10 26/40/10
f 326/41/11 323/42/11 20/43/11 21/44/11
f 327/45/12 324/46/12 23/47/12 17/48/12
f 322/49/13 327/50/13 17/51/13 16/52/13
f 328/53/14 325/54/14 18/55/14 19/56/14
f 329/57/15 326/58/15 21/59/15 22/60/15
f 323/61/16 328/62/16 19/63/16 20/64/16
f 324/65/17 329/66/17 22/67/17 23/68/17
f 31/69/18 30/70/18 62/71/18 63/72/18
f 359/73/19 355/74/19 30/70/19 31/69/19
f 360/75/20 356/76/20 28/77/20 29/78/20
f 361/79/21 358/80/21 26/81/21 27/82/21
f 354/83/22 357/84/22 25/85/22 24/86/22
f 393/87/23 390/88/23 419/89/23 420/87/23
f 355/90/24 360/91/24 29/92/24 30/93/24
f 394/94/25 395/95/25 422/96/25 423/97/25
f 333/98/26 330/99/26 338/100/26 349/101/26
f 332/102/27 337/103/27 353/104/27 342/105/27
f 39/106/28 36/107/28 343/108/28 344/109/28
f 32/110/29 33/111/29 347/112/29 339/113/29
f 331/114/30 336/115/30 352/116/30 340/117/30
f 34/118/31 35/119/31 346/120/31 341/121/31
f 337/122/32 334/123/32 350/124/32 353/125/32
f 36/126/33 37/127/33 348/128/33 343/129/33
f 268/130/34 273/131/34 46/132/34 44/133/34
f 267/134/24 272/135/24 45/136/24 42/137/24
f 269/138/35 271/139/35 43/140/35 47/141/35
f 266/142/22 269/143/22 47/144/22 40/145/22
f 273/146/21 270/147/21 41/148/21 46/149/21
f 272/150/20 268/151/20 44/152/20 45/153/20
f 271/154/19 267/155/19 42/156/19 43/157/19
f 270/158/10 266/159/10 40/160/10 41/161/10
f 49/162/36 54/163/36 55/164/36 48/165/36
f 81/166/37 152/167/37 80/168/37 48/169/37 55/170/37
f 30/93/38 29/92/38 61/171/38 62/172/38
f 64/173/39 65/174/39 53/175/39 54/176/39
f 29/78/40 28/77/40 60/177/40 61/178/40
f 65/174/41 71/179/41 91/180/41 53/175/41
f 83/181/42 151/182/42 81/166/42 55/170/42 52/183/42
f 28/184/43 27/185/43 59/186/43 60/187/43
f 62/188/44 61/189/44 69/190/44 70/191/44
f 60/192/45 59/193/45 67/194/45 68/195/45
f 58/196/36 56/197/36 64/198/36 66/199/36
f 63/200/46 62/201/46 70/202/46 71/203/46
f 61/204/47 60/205/47 68/206/47 69/207/47
f 59/208/48 58/209/48 66/210/48 67/211/48
f 56/212/49 57/213/49 65/214/49 64/215/49
f 57/216/50 63/217/50 71/218/50 65/219/50
f 71/179/51 70/220/51 90/221/51 91/180/51
f 25/222/52 31/223/52 63/224/52 57/225/52
f 24/86/53 25/85/53 57/226/53 56/227/53
f 82/228/54 150/229/54 83/181/54 52/183/54 94/230/54
f 26/40/55 24/39/55 56/231/55 58/232/55
f 70/220/56 69/233/56 89/234/56 90/221/56
f 27/82/57 26/81/57 58/235/57 59/236/57
f 87/237/58 149/238/58 82/228/58 94/230/58 95/239/58
f 111/240/59 105/241/59 130/242/59 136/243/59
f 88/244/45 50/245/45 51/246/45 93/247/45
f 90/248/44 89/249/44 92/250/44 95/251/44
f 53/252/50 91/253/50 94/254/50 52/255/50
f 54/256/49 53/257/49 52/258/49 55/259/49
f 50/260/48 49/261/48 48/262/48 51/263/48
f 89/264/47 88/265/47 93/266/47 92/267/47
f 91/268/46 90/269/46 95/270/46 94/271/46
f 66/272/60 64/173/60 54/176/60 49/273/60
f 80/168/61 145/274/61 84/275/61 51/276/61 48/169/61
f 67/277/62 66/272/62 49/273/62 50/278/62
f 84/275/63 146/279/63 85/280/63 93/281/63 51/276/63
f 68/282/64 67/277/64 50/278/64 88/283/64
f 85/280/65 147/284/65 86/285/65 92/286/65 93/281/65
f 86/285/66 148/287/66 87/237/66 95/239/66 92/286/66
f 69/233/67 68/282/67 88/283/67 89/234/67
f 73/288/68 72/289/68 96/290/68 154/291/68 97/292/68
f 72/289/69 74/293/69 98/294/69 153/295/69 96/290/69
f 74/293/70 75/296/70 99/297/70 159/298/70 98/294/70
f 75/296/71 76/299/71 100/300/71 160/301/71 99/297/71
f 76/299/72 77/302/72 101/303/72 155/304/72 100/300/72
f 77/302/73 78/305/73 102/306/73 156/307/73 101/303/73
f 78/305/74 79/308/74 103/309/74 157/310/74 102/306/74
f 79/308/75 73/288/75 97/292/75 158/311/75 103/309/75
f 104/312/76 117/313/76 118/314/76 106/315/76
f 128/316/77 122/317/77 141/318/77 144/319/77
f 110/320/78 111/321/78 136/322/78 135/323/78
f 123/324/79 125/325/79 142/326/79 138/327/79
f 109/328/80 110/329/80 135/330/80 134/331/80
f 124/332/81 127/333/81 143/334/81 139/335/81
f 108/336/82 109/337/82 134/338/82 133/339/82
f 126/340/83 128/341/83 144/342/83 140/343/83
f 168/344/48 164/345/48 128/346/48 126/347/48
f 107/348/84 120/349/84 114/350/84 108/351/84
f 112/352/85 117/353/85 116/354/85
f 109/355/86 119/356/86 113/357/86 110/358/86
f 108/359/87 114/360/87 119/361/87 109/362/87
f 105/363/88 111/364/88 115/365/88 116/366/88
f 106/367/89 118/368/89 120/369/89 107/370/89
f 110/371/90 113/372/90 115/373/90 111/374/90
f 114/375/91 120/376/91 112/377/91
f 120/378/92 118/379/92 112/380/92
f 116/381/93 117/382/93 104/383/93 105/384/93
f 115/385/94 113/386/94 112/387/94
f 113/388/95 119/389/95 112/390/95
f 119/391/96 114/392/96 112/393/96
f 118/394/97 117/395/97 112/396/97
f 116/397/98 115/398/98 112/399/98
f 167/400/47 163/401/47 127/402/47 124/403/47
f 166/400/46 162/401/46 125/402/46 123/403/46
f 164/344/36 161/345/36 122/346/36 128/347/36
f 163/400/45 168/401/45 126/402/45 127/404/45
f 162/400/44 167/401/44 124/402/44 125/403/44
f 165/344/50 166/345/50 123/346/50 121/347/50
f 161/400/49 165/401/49 121/402/49 122/403/49
f 141/405/49 137/406/49 130/407/49 129/408/49
f 137/409/50 138/410/50 136/411/50 130/412/50
f 142/413/44 139/414/44 134/415/44 135/416/44
f 143/417/45 140/418/45 132/419/45 133/420/45
f 144/421/36 141/422/36 129/423/36 131/424/36
f 138/425/46 142/426/46 135/427/46 136/428/46
f 139/429/47 143/430/47 133/431/47 134/432/47
f 140/433/48 144/434/48 131/435/48 132/436/48
f 105/437/99 104/438/99 129/439/99 130/440/99
f 127/441/100 126/442/100 140/443/100 143/444/100
f 104/445/101 106/446/101 131/447/101 129/448/101
f 125/449/102 124/450/102 139/451/102 142/452/102
f 106/453/103 107/454/103 132/455/103 131/456/103
f 121/457/104 123/458/104 138/459/104 137/460/104
f 107/461/105 108/462/105 133/463/105 132/464/105
f 122/465/106 121/466/106 137/467/106 141/468/106
f 97/292/107 154/291/107 96/290/107 81/166/107 151/182/107 83/181/107
f 158/311/108 97/292/108 83/181/108 150/229/108 82/228/108 103/309/108
f 96/290/109 153/295/109 98/294/109 80/168/109 152/167/109 81/166/109
f 157/310/110 103/309/110 82/228/110 149/238/110 87/237/110 102/306/110
f 98/294/111 159/298/111 99/297/111 84/275/111 145/274/111 80/168/111
f 87/237/112 148/287/112 86/285/112 101/303/112 156/307/112 102/306/112
f 146/279/113 84/275/113 99/297/113 160/301/113 100/300/113 85/280/113
f 155/304/114 101/303/114 86/285/114 147/284/114 85/280/114 100/300/114
f 180/469/115 177/470/115 210/471/115 211/469/115
f 200/472/116 197/473/116 230/472/116 231/472/116
f 191/474/117 192/475/117 223/475/117 249/476/117 224/474/117
f 177/477/118 178/478/118 209/478/118 257/479/118 210/480/118
f 197/481/118 198/482/118 229/483/118 244/484/118 230/485/118
f 190/486/119 191/474/119 224/474/119 221/474/119
f 192/475/120 189/487/120 222/475/120 223/475/120
f 183/488/117 184/489/117 215/489/117 241/490/117 216/488/117
f 75/491/121 74/492/121 172/493/121 176/494/121
f 77/491/122 76/492/122 171/493/122 175/494/122
f 79/491/123 78/492/123 170/493/123 174/494/123
f 74/491/124 72/492/124 169/495/124 172/496/124
f 76/491/125 75/492/125 176/495/125 171/496/125
f 78/491/126 77/492/126 175/495/126 170/496/126
f 73/491/127 79/492/127 174/495/127 173/496/127
f 72/491/128 73/492/128 173/493/128 169/494/128
f 169/497/49 173/498/49 178/499/49 177/500/49
f 173/501/129 165/502/129 179/503/129 178/504/129
f 165/502/49 161/505/49 180/506/49 179/503/49
f 161/505/129 169/507/129 177/508/129 180/506/129
f 173/509/50 174/510/50 182/511/50 181/512/50
f 174/513/130 166/514/130 183/515/130 182/516/130
f 166/514/50 165/517/50 184/518/50 183/515/50
f 165/517/130 173/519/130 181/520/130 184/518/130
f 170/497/44 175/498/44 186/521/44 185/500/44
f 175/522/131 167/523/131 187/503/131 186/504/131
f 167/523/44 162/505/44 188/506/44 187/503/44
f 162/505/131 170/524/131 185/508/131 188/506/131
f 171/525/45 176/526/45 190/527/45 189/528/45
f 176/529/132 168/523/132 191/503/132 190/530/132
f 168/523/45 163/531/45 192/532/45 191/503/45
f 163/531/132 171/533/132 189/534/132 192/532/132
f 172/535/36 169/536/36 194/537/36 193/538/36
f 169/539/133 161/540/133 195/541/133 194/542/133
f 161/540/36 164/517/36 196/543/36 195/541/36
f 164/517/133 172/544/133 193/545/133 196/543/133
f 174/497/46 170/498/46 198/499/46 197/500/46
f 170/501/134 162/502/134 199/503/134 198/504/134
f 162/502/46 166/505/46 200/506/46 199/503/46
f 166/505/134 174/507/134 197/508/134 200/506/134
f 175/497/47 171/498/47 202/499/47 201/500/47
f 171/501/135 163/502/135 203/503/135 202/504/135
f 163/502/47 167/505/47 204/506/47 203/503/47
f 167/505/135 175/507/135 201/508/135 204/506/135
f 176/546/136 172/547/136 206/548/136 205/549/136
f 172/550/137 164/551/137 207/552/137 206/553/137
f 164/551/48 168/554/48 208/555/48 251/556/48 207/552/48
f 168/554/137 176/557/137 205/558/137 208/555/137
f 210/559/138 257/560/138 256/561/138 211/562/138
f 214/563/139 242/564/139 241/565/139 215/566/139
f 218/567/140 246/560/140 245/561/140 219/562/140
f 222/567/141 250/560/141 249/561/141 223/562/141
f 226/567/142 255/560/142 254/561/142 227/562/142
f 230/559/143 244/560/143 243/561/143 231/562/143
f 234/559/144 248/560/144 247/561/144 235/562/144
f 238/559/145 253/560/145 252/561/145 239/562/145
f 198/568/146 199/569/146 232/569/146 229/570/146
f 178/571/147 179/572/147 212/572/147 209/573/147
f 205/574/118 206/575/118 237/576/118 253/577/118 238/578/118
f 185/579/118 186/580/118 217/581/118 246/582/118 218/583/118
f 199/569/117 200/472/117 231/472/117 243/584/117 232/569/117
f 179/572/117 180/469/117 211/469/117 256/585/117 212/572/117
f 208/586/146 205/586/146 238/586/146 239/586/146
f 188/587/148 185/588/148 218/587/148 219/587/148
f 206/589/116 207/590/116 240/591/116 237/591/116
f 186/592/149 187/593/149 220/593/149 217/593/149
f 193/594/118 194/595/118 225/596/118 255/597/118 226/598/118
f 207/590/117 251/599/117 252/599/117 240/590/117
f 187/593/117 188/587/117 219/587/117 245/600/117 220/593/117
f 196/601/149 193/602/149 226/603/149 227/601/149
f 194/604/148 195/604/148 228/604/148 225/604/148
f 201/605/118 202/606/118 233/607/118 248/608/118 234/609/118
f 181/610/118 182/611/118 213/612/118 242/490/118 214/613/118
f 195/604/117 196/601/117 227/603/117 254/614/117 228/604/117
f 204/615/147 201/616/147 234/615/147 235/615/147
f 184/489/119 181/617/119 214/618/119 215/489/119
f 202/619/115 203/620/115 236/620/115 233/621/115
f 182/622/120 183/488/120 216/488/120 213/623/120
f 189/624/118 190/625/118 221/626/118 250/627/118 222/628/118
f 203/620/117 204/615/117 235/615/117 247/629/117 236/620/117
f 241/630/139 242/631/139 213/632/139 216/633/139
f 243/562/143 244/634/143 229/635/143 232/561/143
f 245/562/140 246/634/140 217/635/140 220/561/140
f 247/562/144 248/634/144 233/635/144 236/561/144
f 249/562/141 250/634/141 221/635/141 224/561/141
f 252/562/145 253/634/145 237/635/145 240/561/145
f 252/599/117 251/599/117 208/586/117 239/586/117
f 254/562/142 255/634/142 225/635/142 228/561/142
f 256/562/138 257/634/138 209/635/138 212/561/138
f 18/636/10 16/637/10 262/638/10 258/639/10
f 23/640/19 22/641/19 263/642/19 259/643/19
f 21/644/20 20/645/20 264/646/20 260/647/20
f 19/648/21 18/649/21 258/650/21 261/651/21
f 16/652/22 17/653/22 265/654/22 262/655/22
f 17/656/35 23/657/35 259/658/35 265/659/35
f 22/660/24 21/661/24 260/662/24 263/663/24
f 20/664/34 19/665/34 261/666/34 264/667/34
f 262/655/150 265/654/150 285/668/150 282/669/150
f 268/151/151 272/150/151 278/670/151 288/671/151
f 261/651/152 258/650/152 275/672/152 281/673/152
f 267/155/153 271/154/153 276/674/153 287/675/153
f 260/647/154 264/646/154 284/676/154 279/677/154
f 266/159/155 270/158/155 274/678/155 286/679/155
f 259/643/156 263/642/156 283/680/156 277/681/156
f 273/131/157 268/130/157 288/682/157 280/683/157
f 275/684/10 282/685/10 286/686/10 274/687/10
f 277/688/19 283/689/19 287/690/19 276/691/19
f 279/692/20 284/676/20 288/693/20 278/694/20
f 281/695/21 275/672/21 274/696/21 280/697/21
f 282/698/22 285/668/22 289/699/22 286/700/22
f 285/701/35 277/702/35 276/703/35 289/704/35
f 283/705/24 279/706/24 278/707/24 287/708/24
f 284/709/34 281/710/34 280/711/34 288/712/34
f 270/147/158 273/146/158 280/713/158 274/714/158
f 265/659/159 259/658/159 277/715/159 285/716/159
f 269/143/160 266/142/160 286/717/160 289/718/160
f 263/663/161 260/662/161 279/719/161 283/720/161
f 271/139/162 269/138/162 289/721/162 276/722/162
f 264/667/163 261/666/163 281/723/163 284/724/163
f 272/135/164 267/134/164 287/725/164 278/726/164
f 258/639/165 262/638/165 282/727/165 275/728/165
f 5/729/166 3/730/166 295/731/166 290/732/166
f 11/733/167 9/734/167 296/735/167 291/736/167
f 1/737/168 15/738/168 297/739/168 292/740/168
f 3/741/169 1/742/169 292/743/169 295/744/169
f 7/745/170 5/746/170 290/747/170 293/748/170
f 13/749/171 11/750/171 291/751/171 294/752/171
f 9/753/172 7/754/172 293/755/172 296/756/172
f 15/757/173 13/758/173 294/759/173 297/760/173
f 302/761/174 305/762/174 314/763/174 308/764/174
f 296/756/175 293/755/175 313/765/175 317/766/175
f 301/767/176 304/768/176 312/769/176 306/770/176
f 294/752/177 291/751/177 309/771/177 315/772/177
f 303/773/178 298/774/178 319/775/178 310/776/178
f 293/748/179 290/747/179 307/777/179 313/778/179
f 300/779/180 303/780/180 310/781/180 321/782/180
f 295/744/181 292/743/181 311/783/181 316/784/181
f 307/785/166 316/786/166 319/787/166 306/788/166
f 309/789/167 317/790/167 320/791/167 308/792/167
f 311/793/168 318/794/168 321/782/168 310/795/168
f 316/796/169 311/797/169 310/798/169 319/799/169
f 313/800/170 307/801/170 306/802/170 312/803/170
f 315/804/171 309/805/171 308/764/171 314/806/171
f 317/807/172 313/808/172 312/809/172 320/810/172
f 318/811/173 315/812/173 314/813/173 321/814/173
f 297/760/182 294/759/182 315/815/182 318/816/182
f 304/817/183 299/818/183 320/819/183 312/820/183
f 290/732/184 295/731/184 316/821/184 307/822/184
f 305/823/185 300/824/185 321/825/185 314/826/185
f 291/736/186 296/735/186 317/827/186 309/828/186
f 298/829/187 301/830/187 306/831/187 319/787/187
f 292/740/188 297/739/188 318/832/188 311/833/188
f 299/834/189 302/835/189 308/836/189 320/837/189
f 36/107/190 39/106/190 329/838/190 324/839/190
f 389/840/191 386/841/191 415/842/191 416/840/191
f 39/843/192 35/844/192 326/845/192 329/846/192
f 38/847/193 33/848/193 325/849/193 328/850/193
f 32/851/194 37/852/194 327/853/194 322/854/194
f 390/88/195 391/855/195 418/855/195 419/88/195
f 35/119/196 34/118/196 323/856/196 326/857/196
f 33/111/197 32/110/197 322/858/197 325/859/197
f 301/830/166 298/829/166 330/99/166 333/98/166
f 302/835/167 299/834/167 331/860/167 334/861/167
f 303/780/168 300/779/168 332/862/168 335/863/168
f 298/774/169 303/773/169 335/864/169 330/865/169
f 304/768/170 301/767/170 333/866/170 336/867/170
f 305/762/171 302/761/171 334/123/171 337/122/171
f 299/818/172 304/817/172 336/115/172 331/114/172
f 300/824/173 305/823/173 337/103/173 332/102/173
f 342/868/173 353/869/173 344/870/173 343/871/173
f 340/872/172 352/873/172 345/874/172 341/875/172
f 353/876/171 350/124/171 346/877/171 344/878/171
f 352/879/170 349/880/170 347/881/170 345/882/170
f 338/883/169 351/884/169 348/885/169 339/886/169
f 351/887/168 342/888/168 343/889/168 348/890/168
f 350/891/167 340/892/167 341/893/167 346/894/167
f 349/895/166 338/100/166 339/896/166 347/897/166
f 38/898/198 34/899/198 341/900/198 345/901/198
f 334/861/199 331/860/199 340/902/199 350/903/199
f 35/844/200 39/843/200 344/904/200 346/905/200
f 335/863/201 332/862/201 342/906/201 351/907/201
f 33/848/202 38/847/202 345/908/202 347/909/202
f 330/865/203 335/864/203 351/910/203 338/911/203
f 37/852/204 32/851/204 339/912/204 348/913/204
f 336/867/205 333/866/205 349/914/205 352/915/205
f 358/80/206 361/79/206 378/916/206 381/917/206
f 364/918/207 368/919/207 374/920/207 384/921/207
f 357/84/208 354/83/208 371/922/208 377/923/208
f 363/924/209 367/925/209 372/926/209 383/927/209
f 359/928/210 357/929/210 377/930/210 380/931/210
f 362/932/211 366/933/211 370/934/211 382/935/211
f 360/91/212 355/90/212 373/936/212 379/937/212
f 368/938/213 365/939/213 385/940/213 374/941/213
f 41/942/10 40/943/10 366/933/10 362/932/10
f 43/944/19 42/945/19 367/925/19 363/924/19
f 45/946/20 44/947/20 368/919/20 364/918/20
f 46/948/21 41/949/21 362/950/21 365/951/21
f 40/952/22 47/953/22 369/954/22 366/955/22
f 47/956/35 43/957/35 363/958/35 369/959/35
f 42/960/24 45/961/24 364/962/24 367/963/24
f 44/964/34 46/965/34 365/939/34 368/938/34
f 374/966/34 385/967/34 378/968/34 375/969/34
f 372/970/24 384/971/24 379/972/24 373/973/24
f 376/974/35 383/975/35 380/976/35 377/977/35
f 370/978/22 376/979/22 377/980/22 371/981/22
f 385/982/21 382/983/21 381/984/21 378/985/21
f 384/986/20 374/987/20 375/988/20 379/989/20
f 383/990/19 372/991/19 373/992/19 380/993/19
f 382/994/10 370/995/10 371/996/10 381/997/10
f 365/951/214 362/950/214 382/998/214 385/999/214
f 356/76/215 360/75/215 379/1000/215 375/1001/215
f 366/955/216 369/954/216 376/1002/216 370/1003/216
f 355/74/217 359/73/217 380/1004/217 373/1005/217
f 369/959/218 363/958/218 383/1006/218 376/1007/218
f 354/38/219 358/37/219 381/1008/219 371/1009/219
f 367/963/220 364/962/220 384/1010/220 372/1011/220
f 361/1012/221 356/1013/221 375/1014/221 378/1015/221
f 357/929/35 359/928/35 387/1016/35 386/841/35
f 359/928/35 31/223/35 388/1017/35 387/1016/35
f 31/223/35 25/222/35 389/840/35 388/1017/35
f 25/222/35 357/929/35 386/841/35 389/840/35
f 356/1013/34 361/1012/34 391/855/34 390/88/34
f 361/1012/34 27/185/34 392/1018/34 391/855/34
f 27/185/34 28/184/34 393/87/34 392/1018/34
f 28/184/34 356/1013/34 390/88/34 393/87/34
f 34/899/222 38/898/222 395/95/222 394/94/222
f 38/898/223 328/1019/223 396/1020/223 403/1021/223 395/95/223
f 328/1019/224 323/1022/224 397/1023/224 396/1024/224
f 323/1022/225 34/899/225 394/94/225 402/1025/225 397/1023/225
f 37/127/226 36/126/226 399/1026/226 398/1027/226
f 36/126/227 324/1028/227 400/1029/227 405/1030/227 399/1026/227
f 324/1028/228 327/1031/228 401/1032/228 400/1033/228
f 327/1031/229 37/127/229 398/1027/229 404/1034/229 401/1032/229
f 402/1035/230 403/1036/230 412/1036/230 406/1035/230
f 400/1033/231 401/1032/231 411/1037/231 410/1038/231
f 406/1039/232 412/1036/232 408/1040/232 407/1041/232
f 413/1042/233 409/1043/233 410/1044/233 411/1045/233
f 396/1024/25 397/1023/25 407/1046/25 408/1047/25
f 397/1023/234 402/1025/234 406/1048/234 407/1049/234
f 404/1042/235 405/1050/235 409/1051/235 413/1042/235
f 405/1030/236 400/1029/236 410/1052/236 409/1053/236
f 401/1032/237 404/1034/237 413/1054/237 411/1055/237
f 403/1021/238 396/1020/238 408/1056/238 412/1057/238
f 415/1058/35 414/1059/35 417/1060/35 416/1061/35
f 419/1058/34 418/1059/34 421/1060/34 420/1061/34
f 423/1062/232 422/1063/232 424/1064/232 428/1065/232
f 426/1066/233 425/1067/233 429/1068/233 427/1069/233
f 398/1027/231 399/1026/231 425/1070/231 426/1071/231
f 387/1016/239 388/1017/239 417/1017/239 414/1016/239
f 402/1025/240 394/94/240 423/1072/240 428/1073/240
f 391/855/241 392/1018/241 421/1018/241 418/855/241
f 404/1034/242 398/1027/242 426/1074/242 427/1075/242
f 388/1017/243 389/840/243 416/840/243 417/1017/243
f 395/95/244 403/1021/244 424/1076/244 422/1077/244
f 392/1018/245 393/87/245 420/87/245 421/1018/245
f 403/1036/230 402/1035/230 428/1078/230 424/1079/230
f 399/1026/246 405/1030/246 429/1080/246 425/1081/246
f 405/1050/247 404/1042/247 427/1082/247 429/1050/247
f 386/841/248 387/1016/248 414/1016/248 415/841/248
f 463/1083/249 468/1084/249 497/1085/249 495/1086/249
f 8/1087/250 6/1088/250 479/1089/250 481/1090/250
f 464/1091/251 457/1092/251 490/1093/251 496/1094/251
f 439/1095/252 14/1096/252 487/1097/252 489/1098/252
f 466/1099/253 471/1100/253 486/1101/253 484/1102/253
f 12/1103/254 10/1104/254 483/1105/254 485/1106/254
f 440/1107/255 442/1108/255 447/1109/255 445/1110/255
f 431/4/1 442/1111/1 440/1112/1 430/1/1
f 471/1113/256 465/1114/256 488/1115/256 486/1116/256
f 441/1117/257 440/1107/257 445/1110/257 446/1118/257
f 440/1119/9 441/1120/9 437/33/9 430/36/9
f 462/1121/258 449/1122/258 512/1123/258 511/1124/258
f 459/1125/259 463/1126/259 495/1127/259 492/1128/259
f 442/1129/260 468/1130/260 463/1131/260 460/1132/260 447/1133/260
f 455/1134/261 451/1135/261 452/1136/261 456/1137/261
f 460/1138/262 448/1139/262 451/1140/262 455/1141/262
f 445/1110/263 447/1109/263 456/1142/263 452/1143/263
f 451/1135/261 453/1144/261 454/1145/261 452/1136/261
f 461/1146/264 446/1147/264 454/1148/264 453/1149/264
f 446/1118/265 445/1110/265 452/1143/265 454/1150/265
f 448/1139/262 461/1151/262 453/1152/262 451/1140/262
f 447/1133/266 460/1132/266 455/1153/266 456/1154/266
f 2/1155/267 438/1156/267 474/1157/267 475/1158/267
f 487/1159/9 488/1160/9 498/1161/9 489/1162/9
f 485/1163/8 486/1164/8 488/1165/8 487/1166/8
f 450/1167/261 457/1168/261 464/1169/261 461/1170/261
f 449/1171/261 462/1172/261 448/1173/261 460/1174/261
f 462/1175/261 450/1167/261 461/1170/261 448/1176/261
f 465/1177/268 470/1178/268 498/1179/268 488/1180/268
f 463/1181/261 459/1182/261 449/1183/261 460/1174/261
f 483/1184/6 484/1185/6 486/1186/6 485/1187/6
f 473/1188/2 469/1189/2 431/5/2 432/8/2
f 469/1190/1 468/1084/1 442/1111/1 431/4/1
f 470/1178/9 465/1177/9 437/33/9 441/1120/9
f 465/1114/8 471/1113/8 436/29/8 437/32/8
f 471/1100/6 466/1099/6 435/21/6 436/24/6
f 6/1191/269 4/1192/269 477/1193/269 479/1194/269
f 466/1195/5 472/1196/5 434/17/5 435/20/5
f 472/1197/4 467/1198/4 433/1199/4 434/1200/4
f 464/1201/270 470/1202/270 441/1203/270 446/1147/270 461/1146/270
f 467/1204/3 473/1205/3 432/9/3 433/12/3
f 481/1206/5 482/1207/5 484/1208/5 483/1209/5
f 479/1210/4 480/1211/4 482/1212/4 481/1213/4
f 477/1193/3 478/1214/3 480/1215/3 479/1216/3
f 475/1217/2 476/1218/2 478/1219/2 477/1220/2
f 474/1221/1 497/1222/1 476/1223/1 475/1224/1
f 489/1225/271 498/1226/271 496/1227/271 500/1228/271 493/1229/271
f 492/1230/261 495/1231/261 499/1232/261 501/1233/261 491/1234/261
f 496/1235/261 490/1236/261 491/1237/261 501/1238/261 500/1239/261
f 495/1240/272 497/1241/272 474/1242/272 494/1243/272 499/1244/272
f 472/1196/273 466/1195/273 484/1208/273 482/1245/273
f 4/1246/274 2/1247/274 475/1248/274 477/1249/274
f 457/1092/275 458/1250/275 491/1251/275 490/1093/275
f 14/1252/276 12/1253/276 485/1254/276 487/1255/276
f 467/1256/277 472/1257/277 482/1258/277 480/1211/277
f 458/1250/275 459/1125/275 492/1128/275 491/1251/275
f 469/1189/278 473/1188/278 478/1219/278 476/1259/278
f 443/1260/279 439/1095/279 489/1261/279 493/1262/279
f 10/1263/280 8/1264/280 481/1265/280 483/1266/280
f 470/1178/281 464/1267/281 496/1268/281 498/1269/281
f 468/1084/282 469/1190/282 476/1270/282 497/1271/282
f 438/1156/283 444/1272/283 494/1273/283 474/1274/283
f 473/1205/284 467/1204/284 480/1275/284 478/1276/284
f 507/1239/261 505/1238/261 503/1277/261 502/1278/261
f 499/1244/266 494/1243/266 504/1279/266 506/1280/266
f 505/1233/261 506/1232/261 504/1281/261 503/1282/261
f 500/1283/285 501/1284/285 505/1285/285 507/1286/285
f 493/1229/264 500/1228/264 507/1287/264 502/1288/264
f 501/1284/285 499/1289/285 506/1290/285 505/1285/285
f 509/1291/261 511/1292/261 512/1293/261 510/1294/261
f 508/1295/261 513/1296/261 511/1292/261 509/1291/261
f 449/1183/286 459/1182/286 510/1297/286 512/1298/286
f 450/1299/258 462/1121/258 511/1124/258 513/1300/258
f 457/1301/287 450/1302/287 513/1302/287 508/1301/287
f 458/1250/118 457/1092/118 508/1303/118 509/1304/118 510/1305/118 459/1125/118
