# Blender 5.0.1
# www.blender.org
o Tree.002
v 0.144271 0.408474 0.015915
v -0.547350 -0.058630 9.174607
v 0.272636 0.130102 0.018323
v -0.506399 -0.096022 9.169256
v 0.408001 -0.144930 0.021203
v -0.505110 -0.153206 9.165261
v 0.130194 -0.273195 0.002611
v -0.544212 -0.196650 9.164956
v -0.144271 -0.408474 -0.015915
v -0.600819 -0.200917 9.168509
v -0.297385 -0.129977 -0.067008
v -0.641798 -0.163543 9.173855
v -0.408001 0.144930 -0.021203
v -0.643126 -0.106407 9.177862
v -0.130194 0.273195 -0.002611
v -0.603996 -0.062946 9.178176
v -0.571342 -0.154663 9.397903
v 0.020407 0.168880 1.841505
v -0.119319 0.077145 3.790797
v -0.319254 0.047551 5.449670
v -0.446421 -0.016223 7.356216
v -0.388293 -0.069930 7.353012
v -0.242728 -0.021059 5.459741
v -0.024332 -0.010691 3.781784
v 0.152423 0.059540 1.781240
v -0.390780 -0.156417 7.349272
v -0.238156 -0.125268 5.463104
v -0.018759 -0.139675 3.780247
v 0.158032 -0.123870 1.751638
v -0.452545 -0.225168 7.347245
v -0.308097 -0.204009 5.458023
v -0.105661 -0.234068 3.788521
v 0.037297 -0.264432 1.770404
v -0.537722 -0.236541 7.347812
v -0.411366 -0.211592 5.446823
v -0.234064 -0.239759 3.799122
v -0.139211 -0.279828 1.826922
v -0.596343 -0.183802 7.350534
v -0.487579 -0.143618 5.435811
v -0.328958 -0.153516 3.804500
v -0.268073 -0.161036 1.888027
v -0.593629 -0.097027 7.354229
v -0.492321 -0.039451 5.432123
v -0.334824 -0.024745 3.804056
v -0.284290 0.032105 1.911368
v -0.531420 -0.027373 7.356707
v -0.422698 0.039924 5.438144
v -0.248015 0.071244 3.799419
v -0.152689 0.162972 1.898237
v 0.251546 0.117800 0.325506
v 0.297168 -0.115110 0.299993
v 0.113985 -0.271676 0.310332
v -0.107467 -0.284250 0.308842
v -0.271939 -0.135499 0.313639
v -0.283086 0.087442 0.321911
v -0.134378 0.253977 0.328813
v 0.083725 0.257072 0.329933
v -3.628921 -1.100665 2.378773
v 1.076422 -3.377823 2.527256
v -1.323428 3.601660 2.721044
v 3.276092 1.198286 2.688325
v -0.584725 0.947014 3.800531
v -1.213398 -0.365530 3.722140
v 0.087602 -0.989944 3.760660
v 0.727206 0.297931 3.708194
v -1.221471 2.826449 3.169600
v -3.061577 -1.020792 2.935717
v 0.791172 -2.867146 3.027571
v 2.647546 0.998459 3.120313
v -0.840932 1.701330 3.622805
v -1.968408 -0.637882 3.610684
v 0.355851 -1.745690 3.675197
v 1.492851 0.553166 3.577660
v -0.254528 -0.018536 3.909973
v -0.565088 -0.678445 3.824569
v -0.801850 -1.200379 3.683597
v -1.413061 -2.591499 2.645512
v -1.149415 -1.977963 3.413332
v 0.713825 1.932353 3.257182
v 0.069535 0.635665 3.829713
v 0.327271 1.154090 3.669805
v 1.038389 2.574826 2.713584
v 2.354965 -1.259652 3.025977
v 0.915760 -0.618318 3.756700
v 0.398726 -0.349212 3.865961
v 1.694582 -0.996846 3.519543
v -0.898000 0.295257 3.704907
v -2.743560 1.191328 2.749451
v -2.135849 0.889677 3.102448
v -1.402318 0.534539 3.564976
v -1.795228 -2.549325 3.492248
v 2.317019 -1.469158 3.434396
v -2.791107 1.595106 3.337616
v 1.296734 2.546965 3.431857
v -1.000354 0.388473 4.376311
v -0.704440 -0.751808 4.355686
v 0.432881 -0.458226 4.347907
v 0.148812 0.690801 4.347759
v -2.370846 1.202133 3.819102
v -1.493626 -2.177751 3.871424
v 1.864877 -1.302552 3.785080
v 1.004200 2.110702 3.788214
v -1.555883 0.715787 4.210444
v -1.030170 -1.325874 4.298236
v 0.997902 -0.807076 4.255537
v 0.489039 1.257285 4.242730
v -0.288663 -0.028176 4.487706
v -0.140669 -0.597615 4.423245
v -0.020368 -1.046587 4.313601
v 0.339634 -2.256560 3.528117
v 0.162758 -1.716599 4.115692
v -0.688707 1.664403 3.885133
v -0.428691 0.541353 4.409226
v -0.535870 0.991433 4.261590
v -0.804883 2.212880 3.387602
v 1.992885 0.525050 3.736966
v 0.738986 0.221339 4.391925
v 0.284573 0.116143 4.470660
v 1.421141 0.379945 4.181868
v -0.849777 -0.180536 4.324536
v -2.485042 -0.610402 3.619644
v -1.954602 -0.476672 3.889491
v -1.300732 -0.307014 4.216269
v -2.216427 -1.272803 4.855922
v 0.950063 -1.847268 4.912113
v -1.560001 1.923829 4.933971
v 1.564293 1.213559 4.919679
v -0.690395 0.476506 5.586345
v -0.877392 -0.423595 5.532894
v -0.012453 -0.567587 5.633249
v 0.172159 0.311936 5.626420
v -1.393690 1.500679 5.230770
v -1.892554 -1.132570 5.103034
v 0.699403 -1.583522 5.209882
v 1.217301 1.005569 5.200631
v -0.957816 0.894685 5.458012
v -1.296737 -0.726195 5.431029
v 0.264000 -0.976382 5.579910
v 0.587203 0.588971 5.555110
v -0.360287 -0.052180 5.700306
v -0.445728 -0.490564 5.638642
v -0.511026 -0.833636 5.546646
v -0.654567 -1.767537 4.966224
v -0.602618 -1.345912 5.394886
v -0.017854 1.298987 5.245813
v -0.252605 0.402689 5.644464
v -0.149874 0.770916 5.528361
v 0.047666 1.700358 4.906181
v 1.382008 -0.379042 5.192423
v 0.415837 -0.198270 5.691383
v 0.072453 -0.131192 5.726257
v 0.936962 -0.295488 5.555540
v -0.788366 0.020979 5.530470
v -2.069409 0.239777 4.915781
v -1.649977 0.156101 5.114432
v -1.132546 0.073745 5.415409
v -0.678832 -1.880905 5.837553
v 1.447366 -0.257576 5.825711
v -2.263215 0.215785 5.632234
v -0.004202 1.864874 5.663793
v -0.939855 -0.046369 6.545687
v -0.490723 -0.604272 6.559661
v 0.115620 -0.123628 6.618607
v -0.305550 0.475888 6.565313
v -1.923234 0.084588 6.015084
v -0.603732 -1.587487 6.137756
v 1.131802 -0.260104 6.154964
v -0.054343 1.562206 5.985663
v -1.340557 -0.005528 6.360689
v -0.545840 -1.003137 6.494312
v 0.515562 -0.179950 6.566119
v -0.208735 0.913474 6.443365
v -0.411796 -0.076759 6.695781
v -0.186916 -0.359518 6.650061
v -0.006847 -0.580899 6.554449
v 0.494677 -1.201775 5.889285
v 0.254061 -0.925795 6.377393
v -1.020514 0.825419 6.081043
v -0.624095 0.220829 6.604772
v -0.779909 0.467362 6.449187
v -1.231322 1.107207 5.660355
v 0.780785 0.835401 6.087173
v 0.132000 0.352377 6.653888
v -0.105984 0.168377 6.702704
v 0.483269 0.617585 6.487690
v -0.717663 -0.332923 6.518003
v -1.564874 -1.020433 5.855392
v -1.302036 -0.818770 6.077459
v -0.961991 -0.539137 6.399432
v -1.068156 -1.212112 7.260054
v 0.641570 -0.582841 7.321108
v -1.554875 0.506187 7.233603
v 0.138657 1.056020 7.289335
v -0.773609 0.044164 7.687124
v -0.650188 -0.444647 7.658988
v -0.149280 -0.234222 7.698654
v -0.270701 0.255742 7.696260
v -1.371192 0.342822 7.438810
v -0.960870 -1.058765 7.420183
v 0.456681 -0.518711 7.480939
v 0.046080 0.883873 7.452688
v -1.016606 0.159039 7.611044
v -0.787649 -0.703270 7.615502
v 0.092917 -0.345683 7.675332
v -0.133154 0.520614 7.656103
v -0.461599 -0.095122 7.739521
v -0.399724 -0.339179 7.704460
v -0.346379 -0.526254 7.651749
v -0.164872 -1.001312 7.323545
v -0.257705 -0.795555 7.562515
v -0.645696 0.629435 7.480757
v -0.520345 0.151714 7.710167
v -0.567943 0.345152 7.646579
v -0.717212 0.856466 7.266162
v 0.480716 0.264146 7.479527
v -0.018278 0.089282 7.733216
v -0.210938 0.011128 7.748703
v 0.259898 0.193250 7.664935
v -0.713255 -0.203824 7.657816
v -1.418306 -0.489678 7.303722
v -1.195030 -0.403974 7.439300
v -0.909708 -0.285274 7.606274
v -0.282894 -0.334900 9.041911
v -0.295087 0.202255 8.987917
v -0.806239 -0.379410 9.010670
v -0.799502 0.151056 8.941984
v -0.646153 -0.188660 9.373606
v -0.501585 -0.175167 9.354419
v -0.510002 -0.031400 9.356844
v -0.651679 -0.043435 9.348519
v -0.760032 -0.334030 9.181324
v -0.333807 -0.294424 9.174233
v -0.349011 0.140462 9.138416
v -0.771018 0.101675 9.096634
v -0.693124 -0.247119 9.316062
v -0.439687 -0.225779 9.329559
v -0.453497 0.032314 9.326498
v -0.705415 0.011527 9.297792
v -0.582754 -0.112628 9.407571
v -0.508443 -0.104770 9.379220
v -0.447151 -0.097006 9.334085
v -0.257235 -0.061996 9.040257
v -0.353837 -0.084401 9.257002
v -0.768946 -0.117908 9.170050
v -0.650824 -0.117102 9.378030
v -0.700603 -0.118519 9.319192
v -0.821805 -0.119336 8.979482
v -0.560885 0.193701 9.109383
v -0.586339 0.018009 9.371346
v -0.586082 -0.040362 9.398667
v -0.581438 0.108811 9.290893
v -0.572298 -0.181043 9.350264
v -0.535453 -0.381115 9.098451
v -0.547734 -0.314290 9.194057
v -0.565450 -0.235845 9.316478
v -0.770727 -0.870211 8.236887
v 0.259004 -0.253581 8.242000
v -1.259500 0.130355 8.232750
v -0.209817 0.722549 8.216584
v -0.717646 -0.029533 8.663085
v -0.579221 -0.304340 8.632449
v -0.295157 -0.131363 8.654105
v -0.430034 0.145014 8.652928
v -1.125437 0.066494 8.431481
v -0.713340 -0.744287 8.397917
v 0.128612 -0.237115 8.412035
v -0.267585 0.588116 8.388553
v -0.881356 0.009288 8.592607
v -0.635913 -0.480359 8.593244
v -0.129353 -0.173588 8.623173
v -0.368644 0.321952 8.605114
v -0.509076 -0.080139 8.707458
v -0.438516 -0.217541 8.670617
v -0.381509 -0.326080 8.615314
v -0.216782 -0.624251 8.267273
v -0.295841 -0.488781 8.521725
v -0.692632 0.330932 8.446480
v -0.574914 0.057764 8.677637
v -0.623792 0.166992 8.613273
v -0.746880 0.464632 8.228654
v 0.068798 0.258947 8.399323
v -0.253982 0.073186 8.682121
v -0.367008 0.005773 8.706445
v -0.082367 0.173846 8.599915
v -0.647287 -0.167158 8.631713
v -1.059665 -0.432041 8.311769
v -0.923564 -0.344595 8.431505
v -0.758634 -0.236884 8.585003
v -1.319747 -2.821698 3.977426
v 2.532122 -0.973620 3.906241
v -3.116976 1.082422 3.823486
v 0.755539 2.797889 3.874973
v -1.104426 0.220433 4.809809
v -0.590092 -0.829874 4.826396
v 0.475049 -0.313570 4.849422
v -0.023217 0.756441 4.818367
v -2.622941 0.776873 4.296779
v -1.097481 -2.390036 4.347074
v 2.050168 -0.883919 4.270854
v 0.548665 2.313395 4.240662
v -1.726912 0.430358 4.630135
v -0.803891 -1.455492 4.770713
v 1.097308 -0.545078 4.766199
v 0.207626 1.380551 4.709291
v -0.318906 -0.038687 4.961247
v -0.063149 -0.567189 4.902138
v 0.142059 -0.985168 4.790790
v 0.732627 -2.115331 4.013075
v 0.451563 -1.610440 4.593545
v -1.040707 1.547421 4.345923
v -0.568859 0.492669 4.868498
v -0.761835 0.916540 4.718675
v -1.252827 2.053903 3.822562
v 1.822759 0.968486 4.255496
v 0.643145 0.420344 4.903241
v 0.217380 0.219814 4.962290
v 1.283420 0.718517 4.710596
v -0.842563 -0.304416 4.781301
v -2.368927 -1.053810 4.101985
v -1.882558 -0.823388 4.337179
v -1.269068 -0.522705 4.659272
v -1.484698 -1.950860 4.636086
v 1.628706 -1.139557 4.574295
v -2.253628 1.198455 4.548141
v 0.870230 1.904575 4.551016
v -0.880751 0.258722 5.247323
v -0.657161 -0.595131 5.247925
v 0.198904 -0.359814 5.305781
v -0.004515 0.509431 5.272445
v -1.931733 0.886399 4.857251
v -1.259971 -1.663498 4.899613
v 1.285275 -0.991527 4.883722
v 0.645679 1.575286 4.833101
v -1.306539 0.501685 5.103270
v -0.905713 -1.025756 5.195060
v 0.626385 -0.609588 5.261628
v 0.271047 0.947599 5.186017
v -0.344605 -0.047973 5.370295
v -0.233695 -0.474817 5.328061
v -0.143091 -0.810718 5.244718
v 0.130315 -1.729951 4.663426
v -0.004138 -1.317504 5.094160
v -0.629682 1.254456 4.900447
v -0.443844 0.388498 5.297887
v -0.511268 0.741209 5.177322
v -0.735205 1.662908 4.552830
v 1.387067 0.393190 4.839046
v 0.428359 0.157093 5.348470
v 0.085573 0.068762 5.385689
v 0.946777 0.290220 5.209050
v -0.766325 -0.169249 5.215931
v -2.038154 -0.530818 4.613128
v -1.623634 -0.423649 4.813382
v -1.108088 -0.273089 5.107225
v -1.441434 -1.799211 5.412907
v 1.418157 -1.042449 5.446163
v -2.148902 1.076986 5.329536
v 0.742099 1.743785 5.377427
v -0.867859 0.225880 6.005226
v -0.681153 -0.577598 5.997685
v 0.114655 -0.343363 6.085341
v -0.052521 0.469416 6.045110
v -1.846563 0.787099 5.600905
v -1.234306 -1.541184 5.649688
v 1.102707 -0.915875 5.713706
v 0.566938 1.465200 5.627856
v -1.259570 0.447369 5.859175
v -0.922800 -0.984631 5.926595
v 0.499786 -0.576280 6.042476
v 0.214099 0.883059 5.959908
v -0.376061 -0.053669 6.135751
v -0.278799 -0.449077 6.096878
v -0.202047 -0.759796 6.018279
v 0.043342 -1.601050 5.468093
v -0.080461 -1.224297 5.871017
v -0.590180 1.180658 5.658552
v -0.458288 0.353941 6.061556
v -0.507570 0.687595 5.937767
v -0.694999 1.554014 5.334570
v 1.192553 0.355437 5.682469
v 0.326253 0.133179 6.126483
v 0.016413 0.054093 6.157592
v 0.792441 0.251571 6.003740
v -0.773804 -0.180944 5.971632
v -1.934889 -0.525191 5.362992
v -1.561341 -0.432399 5.567061
v -1.093985 -0.290801 5.859496
v -1.612051 1.307331 6.264354
v -1.724150 -1.378306 6.102135
v 1.019767 1.174390 6.490597
v 0.830877 -1.412363 6.281637
v -0.029326 0.299627 7.145411
v -0.772042 0.290565 7.012671
v -0.857826 -0.504733 6.993629
v -0.092010 -0.460887 7.079975
v 0.699991 0.977029 6.816640
v -1.446092 1.050301 6.548031
v -1.579428 -1.196633 6.410295
v 0.608392 -1.177067 6.590785
v 0.268218 0.579484 7.056658
v -1.039011 0.598006 6.926099
v -1.167931 -0.803547 6.871265
v 0.187115 -0.741436 6.991350
v -0.440187 -0.094036 7.170323
v -0.819275 -0.113473 7.054170
v -1.111805 -0.125920 6.903763
v -1.836300 -0.086262 6.149791
v -1.525704 -0.114372 6.665214
v 0.657128 -0.099870 6.777227
v -0.062408 -0.083812 7.149083
v 0.230021 -0.083231 7.055172
v 1.016334 -0.111639 6.401989
v -0.473480 -1.489255 6.519213
v -0.492226 -0.763971 7.081284
v -0.476715 -0.478111 7.144722
v -0.488703 -1.162099 6.904593
v -0.398071 0.297907 7.053797
v -0.267535 1.430391 6.499473
v -0.314853 1.057877 6.709275
v -0.370653 0.603077 6.983330
v -1.140154 -1.183336 6.924278
v 0.622424 -0.664991 7.007440
v -1.492668 0.606143 6.903132
v 0.240741 1.019804 6.972320
v -0.749138 0.070616 7.373954
v -0.659497 -0.433083 7.348256
v -0.150167 -0.262263 7.390615
v -0.240830 0.239601 7.386729
v -1.319309 0.424666 7.110862
v -1.018275 -1.035066 7.090625
v 0.440380 -0.588379 7.170055
v 0.121334 0.845582 7.139927
v -0.980330 0.207812 7.291060
v -0.817378 -0.688660 7.298550
v 0.084961 -0.392154 7.367733
v -0.086909 0.494411 7.346470
v -0.451489 -0.097635 7.430803
v -0.404908 -0.347131 7.396508
v -0.362669 -0.537139 7.344193
v -0.208285 -1.014657 7.012173
v -0.290018 -0.809791 7.254235
v -0.587727 0.650571 7.166595
v -0.493881 0.156765 7.400300
v -0.528567 0.356751 7.335366
v -0.631503 0.892724 6.945378
v 0.511808 0.188177 7.169510
v -0.000106 0.050980 7.425072
v -0.196817 -0.012088 7.440269
v 0.285204 0.133911 7.356901
v -0.705301 -0.184541 7.345238
v -1.425576 -0.426454 6.958063
v -1.198853 -0.358085 7.101727
v -0.907353 -0.256506 7.284142
v -0.986147 -0.871944 7.824768
v 0.259249 -0.486225 7.827753
v -1.204780 0.374016 7.834099
v 0.032310 0.711031 7.813897
v -0.689011 0.034267 8.337469
v -0.629001 -0.313645 8.293875
v -0.280695 -0.197876 8.319220
v -0.338308 0.150336 8.325026
v -1.084788 0.259311 8.068769
v -0.896183 -0.759074 8.013344
v 0.128280 -0.433280 8.028748
v -0.055246 0.588451 8.015962
v -0.847914 0.123914 8.256989
v -0.740810 -0.493985 8.245225
v -0.120328 -0.291132 8.280248
v -0.224321 0.329978 8.270648
v -0.486949 -0.080531 8.385592
v -0.455595 -0.254667 8.338613
v -0.429292 -0.391951 8.270902
v -0.342003 -0.760803 7.856697
v -0.387645 -0.595077 8.157297
v -0.560540 0.432994 8.084357
v -0.514109 0.093054 8.354335
v -0.533268 0.229781 8.280640
v -0.584722 0.595798 7.827476
v 0.201774 0.127061 8.022717
v -0.176333 0.019596 8.355618
v -0.313255 -0.023643 8.384291
v 0.028604 0.080942 8.258802
v -0.658276 -0.140765 8.296851
v -1.162243 -0.316625 7.923199
v -0.998351 -0.262066 8.062662
v -0.795465 -0.188507 8.242270
v -0.642603 -0.792365 8.524710
v 0.183106 -0.125244 8.490121
v -1.216292 -0.004127 8.510412
v -0.362129 0.646054 8.451792
v -0.736233 -0.073735 9.079310
v -0.571053 -0.286598 9.041165
v -0.351714 -0.109552 9.057779
v -0.511678 0.105982 9.053292
v -1.094776 -0.037719 8.775360
v -0.612709 -0.673439 8.738541
v 0.054531 -0.134226 8.722437
v -0.409889 0.514642 8.684429
v -0.880223 -0.057807 8.987971
v -0.591474 -0.440639 8.994074
v -0.197981 -0.123451 9.012322
v -0.480376 0.264625 8.983026
v -0.550432 -0.094467 9.134231
v -0.464771 -0.199411 9.086156
v -0.394396 -0.281392 9.012791
v -0.188105 -0.507319 8.545312
v -0.289365 -0.405633 8.887916
v -0.754255 0.238086 8.778437
v -0.626696 0.014834 9.092644
v -0.681075 0.103469 9.004730
v -0.808290 0.347044 8.488020
v -0.066310 0.280825 8.696488
v -0.349547 0.065237 9.089270
v -0.440069 -0.006218 9.126689
v -0.206274 0.176800 8.971938
v -0.651311 -0.179228 9.038843
v -0.959393 -0.449924 8.625185
v -0.855478 -0.357020 8.781438
v -0.734642 -0.248949 8.980969
v -0.913297 -0.781830 7.545362
v 0.178589 -0.433890 7.552040
v -1.097050 0.308341 7.544358
v -0.018998 0.606964 7.532931
v -0.648148 0.010704 7.995881
v -0.599069 -0.294944 7.959629
v -0.291712 -0.188910 7.983146
v -0.339540 0.116311 7.986127
v -0.993876 0.207095 7.755466
v -0.834369 -0.683239 7.713280
v 0.064351 -0.389788 7.728613
v -0.094073 0.499677 7.711572
v -0.787346 0.088234 7.923259
v -0.698812 -0.454164 7.916758
v -0.151642 -0.268444 7.949401
v -0.239028 0.274775 7.937573
v -0.471044 -0.087846 8.040478
v -0.445775 -0.240933 7.999637
v -0.424186 -0.360953 7.940242
v -0.347194 -0.676618 7.576990
v -0.388843 -0.537153 7.840409
v -0.536519 0.360159 7.770057
v -0.493756 0.064485 8.011447
v -0.510758 0.183786 7.945027
v -0.559592 0.502062 7.542698
v 0.129599 0.098585 7.721773
v -0.197259 0.004101 8.015291
v -0.317629 -0.035416 8.040060
v -0.018349 0.059291 7.930495
v -0.623411 -0.143413 7.961188
v -1.064313 -0.297623 7.628213
v -0.922060 -0.250172 7.753702
v -0.744505 -0.186573 7.912516
vn 0.6784 0.7327 0.0547
vn 0.9979 -0.0118 0.0638
vn 0.7423 -0.6684 0.0479
vn 0.1103 -0.9937 0.0222
vn -0.6713 -0.7412 -0.0086
vn -0.9996 0.0110 -0.0261
vn 0.9618 0.0025 0.2738
vn -0.7445 0.6674 -0.0167
vn -0.1081 0.9940 0.0161
vn 0.0927 0.0347 -0.9951
vn 0.7271 -0.6559 0.2029
vn -0.0454 0.9195 0.3905
vn -0.6392 -0.7338 0.2301
vn 0.6549 0.6662 0.3569
vn -0.9526 -0.0433 0.3013
vn -0.6938 0.6221 0.3628
vn 0.0855 -0.9788 0.1864
vn -0.0148 0.9982 0.0577
vn -0.0292 0.9985 0.0458
vn -0.0583 0.9982 0.0118
vn -0.1007 0.9945 0.0279
vn -0.7272 0.6859 0.0273
vn -0.7204 0.6935 -0.0005
vn -0.7443 0.6645 -0.0663
vn -0.7483 0.6631 -0.0194
vn -0.9978 -0.0656 -0.0008
vn -0.9973 -0.0663 -0.0300
vn -0.9942 -0.0470 -0.0965
vn -0.9984 -0.0106 -0.0549
vn -0.6752 -0.7376 -0.0111
vn -0.6784 -0.7345 -0.0182
vn -0.6672 -0.7425 -0.0597
vn -0.6642 -0.7456 -0.0537
vn 0.0710 -0.9975 0.0065
vn 0.0738 -0.9970 0.0220
vn 0.0571 -0.9981 0.0241
vn 0.1004 -0.9949 -0.0049
vn 0.7007 -0.7116 0.0516
vn 0.7514 -0.6569 0.0617
vn 0.7382 -0.6669 0.1017
vn 0.7438 -0.6666 0.0493
vn 0.9903 0.1108 0.0837
vn 0.9958 0.0269 0.0879
vn 0.9907 0.0441 0.1290
vn 0.9968 0.0107 0.0789
vn 0.6459 0.7600 0.0729
vn 0.6679 0.7395 0.0838
vn 0.6707 0.7359 0.0929
vn 0.6688 0.7402 0.0699
vn 0.8483 0.3942 0.3536
vn 0.8561 0.4244 0.2949
vn 0.3919 -0.8852 0.2505
vn 0.4081 -0.8671 0.2854
vn -0.8652 -0.4277 0.2617
vn -0.8818 -0.3972 0.2545
vn -0.4167 0.8596 0.2957
vn -0.4360 0.8406 0.3212
vn 0.0566 -0.9984 0.0079
vn -0.6698 -0.7417 0.0340
vn -0.9965 -0.0523 0.0659
vn -0.7462 0.6651 0.0291
vn -0.0145 0.9982 0.0577
vn 0.6380 0.7664 0.0745
vn 0.9801 0.1838 0.0747
vn 0.6505 -0.7586 0.0380
vn -0.1766 -0.0441 0.9833
vn -0.5872 0.1514 0.7952
vn -0.2040 -0.7343 0.6475
vn 0.5763 -0.1085 0.8100
vn 0.2240 0.5350 0.8147
vn -0.5182 0.2183 0.8269
vn -0.0883 -0.4368 0.8952
vn 0.3378 0.0087 0.9412
vn 0.1509 0.4089 0.9000
vn -0.1974 0.1283 0.9719
vn -0.0437 -0.1754 0.9835
vn 0.1840 0.0897 0.9788
vn 0.0801 0.2555 0.9635
vn 0.1937 0.0244 0.9808
vn -0.0125 -0.1562 0.9876
vn -0.3014 0.0050 0.9535
vn -0.4788 -0.6178 0.6237
vn 0.0292 -0.1418 0.9895
vn -0.1530 -0.1207 0.9808
vn -0.3203 -0.3267 0.8892
vn 0.1801 0.1279 0.9753
vn 0.2381 0.3454 0.9077
vn 0.0111 0.1164 0.9931
vn 0.3262 0.5342 0.7799
vn 0.0662 -0.1370 0.9883
vn 0.2791 -0.3101 0.9088
vn 0.1481 0.1627 0.9755
vn 0.4537 -0.4406 0.7746
vn -0.5134 0.2684 0.8151
vn -0.2386 0.1389 0.9611
vn -0.3077 0.0679 0.9491
vn -0.4645 0.1860 0.8658
vn -0.0820 -0.1331 0.9877
vn -0.5248 -0.1990 0.8277
vn 0.2947 -0.6579 0.6930
vn 0.5293 0.3045 0.7919
vn -0.2127 0.6435 0.7353
vn -0.4847 -0.1100 0.8677
vn 0.2118 -0.3356 0.9179
vn 0.2977 0.2524 0.9207
vn -0.1606 0.4483 0.8793
vn -0.2191 0.0121 0.9756
vn 0.1175 -0.1478 0.9820
vn 0.0721 0.1829 0.9805
vn -0.1250 0.2776 0.9525
vn 0.0656 0.1520 0.9862
vn 0.0768 -0.1894 0.9789
vn -0.2382 -0.1503 0.9595
vn 0.0953 -0.7304 0.6764
vn 0.1474 -0.0734 0.9864
vn -0.0081 -0.1596 0.9871
vn 0.0162 -0.3822 0.9239
vn -0.0147 0.2444 0.9696
vn -0.0923 0.4929 0.8652
vn -0.0877 0.1148 0.9895
vn -0.1260 0.6627 0.7382
vn 0.1352 -0.1246 0.9830
vn 0.3861 -0.0806 0.9189
vn -0.0223 0.2041 0.9787
vn 0.6131 -0.0222 0.7897
vn -0.6271 -0.0461 0.7776
vn -0.2748 -0.0175 0.9613
vn -0.2798 -0.0989 0.9549
vn -0.4527 -0.0875 0.8874
vn -0.2498 -0.0870 0.9644
vn -0.5165 0.0501 0.8548
vn -0.0236 -0.7304 0.6826
vn 0.6228 0.0695 0.7793
vn 0.0910 0.6154 0.7829
vn -0.5116 0.1014 0.8532
vn -0.0118 -0.4254 0.9049
vn 0.3547 0.1407 0.9243
vn 0.0264 0.4157 0.9091
vn -0.2948 0.0738 0.9527
vn -0.0599 -0.2056 0.9768
vn 0.0908 0.1683 0.9815
vn -0.0533 0.2862 0.9567
vn 0.0649 0.1064 0.9922
vn -0.0933 -0.1901 0.9773
vn -0.3735 -0.0334 0.9270
vn -0.2636 -0.6646 0.6992
vn -0.0120 -0.1370 0.9905
vn -0.1969 -0.1434 0.9699
vn -0.2291 -0.3104 0.9226
vn 0.0495 0.2418 0.9691
vn 0.1247 0.4836 0.8663
vn -0.1060 0.1458 0.9836
vn 0.1887 0.6351 0.7490
vn 0.0112 -0.1681 0.9857
vn 0.2955 -0.2591 0.9195
vn -0.0176 0.2235 0.9745
vn 0.5683 -0.3110 0.7617
vn -0.5836 0.1118 0.8043
vn -0.3564 0.0764 0.9312
vn -0.3656 0.0063 0.9308
vn -0.4687 0.0285 0.8829
vn -0.0986 -0.2348 0.9670
vn -0.4871 -0.4543 0.7459
vn 0.5850 -0.5610 0.5857
vn 0.4496 0.6080 0.6544
vn -0.5117 0.5694 0.6434
vn -0.5161 -0.3693 0.7729
vn 0.3968 -0.3535 0.8471
vn 0.1573 0.4959 0.8540
vn -0.4432 0.4346 0.7841
vn -0.3343 -0.1188 0.9350
vn 0.1618 -0.1795 0.9704
vn -0.1023 0.3144 0.9438
vn -0.3887 0.2856 0.8760
vn -0.0745 0.2427 0.9672
vn 0.1262 -0.1849 0.9746
vn -0.2767 -0.3026 0.9121
vn 0.3829 -0.7088 0.5924
vn 0.1404 -0.0482 0.9889
vn 0.0224 -0.2469 0.9688
vn 0.1718 -0.4621 0.8700
vn -0.2287 0.3489 0.9088
vn -0.3866 0.5649 0.7290
vn -0.2665 0.1030 0.9583
vn -0.4264 0.6636 0.6146
vn 0.1717 -0.0787 0.9820
vn 0.4947 0.1049 0.8627
vn -0.2342 0.2658 0.9351
vn 0.6975 0.2647 0.6659
vn -0.6546 -0.3118 0.6887
vn -0.3791 -0.1776 0.9082
vn -0.3589 -0.2507 0.8991
vn -0.5169 -0.3033 0.8005
vn -0.1072 -0.1680 0.9800
vn -0.5312 -0.2621 0.8057
vn 0.3366 -0.6543 0.6772
vn 0.5249 0.4007 0.7509
vn -0.2838 0.6100 0.7398
vn -0.4949 -0.1722 0.8517
vn 0.1959 -0.3794 0.9042
vn 0.2347 0.3067 0.9224
vn -0.2281 0.4228 0.8771
vn -0.2274 -0.0485 0.9726
vn 0.0553 -0.1946 0.9793
vn -0.0237 0.1823 0.9830
vn -0.1858 0.2548 0.9490
vn 0.0056 0.1194 0.9928
vn 0.0442 -0.1890 0.9810
vn -0.2368 -0.1707 0.9564
vn 0.1335 -0.7391 0.6602
vn 0.0746 -0.1232 0.9896
vn -0.0318 -0.2051 0.9782
vn 0.0184 -0.4165 0.9090
vn -0.0905 0.2367 0.9674
vn -0.1801 0.5084 0.8421
vn -0.1270 0.0873 0.9881
vn -0.1971 0.6795 0.7067
vn 0.0776 -0.1369 0.9875
vn 0.3681 -0.0962 0.9248
vn -0.1129 0.1818 0.9768
vn 0.6481 -0.0185 0.7613
vn -0.6492 -0.0859 0.7557
vn -0.2810 -0.0689 0.9572
vn -0.2851 -0.1157 0.9515
vn -0.4744 -0.1159 0.8727
vn 0.3679 -0.2769 0.8877
vn 0.1981 -0.8645 0.4619
vn 0.8886 0.2036 0.4109
vn -0.3936 0.8505 0.3490
vn -0.9632 -0.0257 0.2675
vn 0.0860 -0.8641 0.4959
vn 0.7253 0.2338 0.6475
vn -0.5000 0.6756 0.5419
vn -0.8984 -0.0324 0.4379
vn -0.0349 -0.5032 0.8635
vn 0.4689 0.1470 0.8709
vn -0.5436 0.2848 0.7896
vn -0.7490 -0.0703 0.6588
vn -0.3933 0.3380 0.8551
vn 0.4660 0.1293 0.8753
vn 0.2986 -0.5856 0.7536
vn 0.9170 -0.0764 0.3915
vn 0.3156 0.2830 0.9057
vn 0.4663 -0.0960 0.8794
vn 0.7413 -0.1104 0.6620
vn -0.6771 0.1606 0.7182
vn -0.9234 0.0834 0.3747
vn -0.3922 -0.0823 0.9162
vn -0.9660 0.0944 0.2407
vn 0.3438 0.2669 0.9003
vn 0.2549 0.7244 0.6405
vn -0.6079 0.0694 0.7910
vn 0.1643 0.8881 0.4292
vn -0.0475 -0.9183 0.3930
vn 0.0082 -0.6414 0.7672
vn 0.1458 -0.6518 0.7443
vn 0.0565 -0.8447 0.5323
vn -0.0766 -0.2947 0.9525
vn -0.5607 -0.4260 0.7101
vn 0.5403 -0.6716 0.5070
vn 0.5321 0.5645 0.6310
vn -0.4544 0.7077 0.5410
vn -0.5758 -0.3276 0.7491
vn 0.3966 -0.4643 0.7919
vn 0.2650 0.4829 0.8347
vn -0.3793 0.5579 0.7382
vn -0.2980 -0.1270 0.9461
vn 0.1834 -0.2697 0.9453
vn -0.0334 0.3049 0.9518
vn -0.3022 0.3673 0.8797
vn 0.0305 0.2251 0.9738
vn 0.1711 -0.2718 0.9470
vn -0.2747 -0.3450 0.8975
vn 0.3271 -0.7921 0.5154
vn 0.2041 -0.1544 0.9667
vn 0.0475 -0.3148 0.9480
vn 0.1586 -0.5515 0.8189
vn -0.1465 0.3666 0.9188
vn -0.3223 0.6432 0.6946
vn -0.1769 0.1266 0.9760
vn -0.3722 0.7663 0.5238
vn 0.2065 -0.1735 0.9629
vn 0.5650 -0.0212 0.8248
vn -0.1669 0.2870 0.9433
vn 0.7815 0.1100 0.6141
vn -0.7293 -0.2492 0.6372
vn -0.3807 -0.1840 0.9062
vn -0.3520 -0.2681 0.8968
vn -0.5617 -0.2864 0.7762
vn -0.0700 -0.1443 0.9871
vn -0.4577 -0.2808 0.8436
vn 0.4102 -0.5853 0.6994
vn 0.4435 0.4289 0.7870
vn -0.3191 0.6113 0.7242
vn -0.4589 -0.1874 0.8685
vn 0.2653 -0.3088 0.9134
vn 0.2035 0.3325 0.9209
vn -0.2317 0.3711 0.8992
vn -0.2463 -0.0172 0.9690
vn 0.1178 -0.1442 0.9825
vn -0.0171 0.2128 0.9769
vn -0.2080 0.2269 0.9514
vn 0.0060 0.1747 0.9846
vn 0.0797 -0.1694 0.9823
vn -0.2409 -0.1721 0.9552
vn 0.2290 -0.6861 0.6905
vn 0.1216 -0.0520 0.9912
vn 0.0145 -0.1581 0.9873
vn 0.0853 -0.3677 0.9260
vn -0.0781 0.2418 0.9672
vn -0.1879 0.4712 0.8618
vn -0.1573 0.0976 0.9827
vn -0.2598 0.6441 0.7195
vn 0.1308 -0.1023 0.9861
vn 0.3960 -0.0179 0.9181
vn -0.1048 0.2135 0.9713
vn 0.6160 0.0821 0.7835
vn -0.5859 -0.1657 0.7932
vn -0.2967 -0.0608 0.9530
vn -0.2730 -0.1325 0.9528
vn -0.3972 -0.1618 0.9034
vn -0.1470 -0.1352 0.9799
vn -0.5208 -0.1450 0.8413
vn 0.2919 -0.6624 0.6900
vn 0.5363 0.3403 0.7724
vn -0.1896 0.5976 0.7790
vn -0.5143 -0.0714 0.8546
vn 0.1818 -0.3768 0.9083
vn 0.2559 0.2953 0.9205
vn -0.1640 0.3914 0.9055
vn -0.2830 0.0227 0.9589
vn 0.0493 -0.1706 0.9841
vn 0.0077 0.2200 0.9755
vn -0.1775 0.2731 0.9455
vn 0.0114 0.1662 0.9860
vn 0.0136 -0.1798 0.9836
vn -0.3016 -0.1497 0.9416
vn 0.0854 -0.7072 0.7018
vn 0.0724 -0.0796 0.9942
vn -0.0619 -0.1622 0.9848
vn -0.0125 -0.3610 0.9325
vn -0.0584 0.2671 0.9619
vn -0.1031 0.4983 0.8608
vn -0.1515 0.1281 0.9801
vn -0.1101 0.6555 0.7471
vn 0.0800 -0.1173 0.9899
vn 0.3860 -0.0838 0.9187
vn -0.0968 0.2291 0.9686
vn 0.6541 -0.0237 0.7561
vn -0.5840 -0.0950 0.8062
vn -0.3395 -0.0164 0.9405
vn -0.3284 -0.1068 0.9385
vn -0.4453 -0.1252 0.8866
vn -0.1936 -0.1430 0.9706
vn -0.5432 -0.1410 0.8277
vn 0.2762 -0.6730 0.6862
vn 0.5385 0.3415 0.7703
vn -0.2049 0.5812 0.7876
vn -0.5406 -0.0799 0.8375
vn 0.1653 -0.3879 0.9068
vn 0.2557 0.2981 0.9197
vn -0.1922 0.4184 0.8877
vn -0.3143 0.0051 0.9493
vn 0.0380 -0.1870 0.9816
vn -0.0025 0.2325 0.9726
vn -0.2017 0.2939 0.9343
vn -0.0105 0.1770 0.9842
vn -0.0053 -0.1801 0.9836
vn -0.3343 -0.1541 0.9298
vn 0.0659 -0.7126 0.6985
vn 0.0520 -0.0850 0.9950
vn -0.1100 -0.1786 0.9777
vn -0.0459 -0.3759 0.9255
vn -0.0851 0.2912 0.9529
vn -0.1275 0.5142 0.8481
vn -0.1781 0.1413 0.9738
vn -0.1248 0.6635 0.7377
vn 0.0787 -0.1204 0.9896
vn 0.3720 -0.0883 0.9240
vn -0.1198 0.2410 0.9631
vn 0.6347 -0.0259 0.7723
vn -0.5925 -0.1049 0.7987
vn -0.3740 -0.0265 0.9270
vn -0.3538 -0.1072 0.9292
vn -0.4777 -0.1249 0.8696
vn -0.2966 0.1318 0.9459
vn -0.1579 0.5906 0.7914
vn -0.8653 -0.0843 0.4941
vn 0.1693 -0.7368 0.6546
vn 0.7243 -0.0514 0.6876
vn -0.1042 0.5536 0.8262
vn -0.6198 -0.0887 0.7797
vn 0.1953 -0.4891 0.8501
vn 0.5303 -0.0446 0.8466
vn -0.0943 0.2124 0.9726
vn -0.3925 -0.0452 0.9187
vn 0.1482 -0.1915 0.9702
vn 0.3038 -0.0187 0.9525
vn 0.0602 -0.1845 0.9810
vn -0.3668 -0.0271 0.9299
vn -0.2313 0.3000 0.9255
vn -0.8384 0.1001 0.5357
vn -0.2853 -0.1190 0.9510
vn -0.3649 0.0546 0.9295
vn -0.5664 0.0869 0.8195
vn 0.2383 -0.1401 0.9610
vn 0.5689 -0.1467 0.8092
vn 0.0560 0.0047 0.9984
vn 0.7235 -0.1580 0.6720
vn -0.3138 -0.1243 0.9413
vn -0.3030 -0.4984 0.8123
vn 0.1690 -0.0815 0.9822
vn -0.2591 -0.7550 0.6023
vn 0.0648 0.6611 0.7475
vn -0.1102 0.2941 0.9494
vn -0.1452 0.3341 0.9313
vn -0.0577 0.5396 0.8399
vn -0.1317 -0.1591 0.9784
vn -0.5731 -0.2110 0.7919
vn 0.2893 -0.6871 0.6665
vn 0.5436 0.3571 0.7596
vn -0.2465 0.6243 0.7413
vn -0.5410 -0.1295 0.8310
vn 0.1701 -0.3978 0.9016
vn 0.2566 0.2915 0.9215
vn -0.2114 0.4337 0.8759
vn -0.2698 -0.0292 0.9625
vn 0.0395 -0.1960 0.9798
vn -0.0119 0.1846 0.9827
vn -0.1840 0.2693 0.9453
vn 0.0135 0.1213 0.9925
vn 0.0272 -0.1897 0.9815
vn -0.2682 -0.1531 0.9511
vn 0.0818 -0.7579 0.6473
vn 0.0643 -0.1241 0.9902
vn -0.0596 -0.2081 0.9763
vn -0.0228 -0.4296 0.9027
vn -0.0737 0.2430 0.9672
vn -0.1395 0.5219 0.8415
vn -0.1342 0.0959 0.9863
vn -0.1405 0.6893 0.7108
vn 0.0654 -0.1400 0.9880
vn 0.3625 -0.1190 0.9244
vn -0.1002 0.1902 0.9766
vn 0.6475 -0.0590 0.7598
vn -0.6670 -0.0502 0.7433
vn -0.3053 -0.0447 0.9512
vn -0.3273 -0.0997 0.9396
vn -0.5088 -0.0899 0.8561
vn -0.1485 -0.2824 0.9477
vn -0.6868 -0.2760 0.6724
vn 0.3772 -0.7930 0.4785
vn 0.7095 0.4037 0.5776
vn -0.2801 0.7984 0.5329
vn -0.6682 -0.1724 0.7237
vn 0.2920 -0.5681 0.7694
vn 0.4269 0.3949 0.8135
vn -0.2465 0.6371 0.7303
vn -0.3358 -0.0590 0.9401
vn 0.1269 -0.3301 0.9354
vn 0.0560 0.2927 0.9546
vn -0.2164 0.4275 0.8777
vn 0.1004 0.1915 0.9763
vn 0.1147 -0.3287 0.9375
vn -0.3659 -0.2709 0.8903
vn 0.1333 -0.8663 0.4813
vn 0.1795 -0.2260 0.9574
vn -0.0244 -0.3381 0.9408
vn 0.0283 -0.5979 0.8010
vn -0.0514 0.3879 0.9202
vn -0.1587 0.7144 0.6815
vn -0.1457 0.1532 0.9774
vn -0.1676 0.8474 0.5038
vn 0.1759 -0.2440 0.9537
vn 0.5776 -0.1854 0.7950
vn -0.0941 0.3089 0.9464
vn 0.8159 -0.1009 0.5693
vn -0.7993 -0.0440 0.5994
vn -0.4333 -0.0888 0.8969
vn -0.4290 -0.1738 0.8864
vn -0.6468 -0.1265 0.7521
vn -0.0256 -0.4336 0.9008
vn -0.5716 -0.6058 0.5534
vn 0.6858 -0.6239 0.3748
vn 0.4723 0.7202 0.5082
vn -0.5907 0.7167 0.3707
vn -0.6310 -0.5134 0.5816
vn 0.5821 -0.4784 0.6575
vn 0.2423 0.6671 0.7045
vn -0.5301 0.6286 0.5691
vn -0.3835 -0.2405 0.8917
vn 0.3355 -0.3157 0.8876
vn -0.0815 0.4575 0.8854
vn -0.4483 0.4617 0.7654
vn 0.0243 0.3703 0.9286
vn 0.3185 -0.3222 0.8915
vn -0.2935 -0.5391 0.7894
vn 0.4809 -0.7922 0.3758
vn 0.3460 -0.1424 0.9274
vn 0.1559 -0.4227 0.8928
vn 0.3168 -0.6558 0.6853
vn -0.2446 0.5062 0.8270
vn -0.4620 0.7143 0.5258
vn -0.2604 0.1793 0.9487
vn -0.5080 0.7803 0.3647
vn 0.3523 -0.1702 0.9203
vn 0.6981 0.1143 0.7068
vn -0.2637 0.4046 0.8757
vn 0.8246 0.2711 0.4965
vn -0.7715 -0.4257 0.4729
vn -0.4790 -0.3405 0.8091
vn -0.4139 -0.4484 0.7922
vn -0.6297 -0.4759 0.6140
vn -0.1497 -0.2779 0.9489
vn -0.6990 -0.2709 0.6618
vn 0.3828 -0.7966 0.4679
vn 0.7134 0.4122 0.5667
vn -0.2860 0.8007 0.5264
vn -0.6759 -0.1658 0.7181
vn 0.2973 -0.5724 0.7642
vn 0.4238 0.4075 0.8089
vn -0.2532 0.6415 0.7241
vn -0.3421 -0.0512 0.9383
vn 0.1285 -0.3320 0.9345
vn 0.0441 0.3033 0.9519
vn -0.2264 0.4357 0.8712
vn 0.0930 0.1998 0.9754
vn 0.1147 -0.3283 0.9376
vn -0.3694 -0.2601 0.8921
vn 0.1430 -0.8717 0.4687
vn 0.1788 -0.2260 0.9576
vn -0.0233 -0.3380 0.9408
vn 0.0343 -0.6043 0.7961
vn -0.0630 0.3978 0.9153
vn -0.1709 0.7214 0.6711
vn -0.1549 0.1626 0.9745
vn -0.1764 0.8488 0.4984
vn 0.1765 -0.2451 0.9533
vn 0.5806 -0.1905 0.7916
vn -0.1066 0.3193 0.9416
vn 0.8218 -0.1019 0.5605
vn -0.8102 -0.0345 0.5852
vn -0.4372 -0.0795 0.8958
vn -0.4343 -0.1623 0.8860
vn -0.6531 -0.1151 0.7485
vt 0.300903 1.759227
vt 0.300903 2.198274
vt 0.264242 2.198274
vt 0.264242 1.759227
vt 0.227581 2.198274
vt 0.227581 1.759227
vt 0.190921 2.198274
vt 0.190921 1.759227
vt 0.154260 2.198274
vt 0.154260 1.759227
vt 0.117599 2.198274
vt 0.117599 1.759227
vt 0.080939 2.198274
vt 0.080939 1.759227
vt 0.215711 0.362195
vt 0.173828 0.320312
vt 0.233059 0.320312
vt 0.044278 2.198274
vt 0.044278 1.759227
vt 0.007617 2.198274
vt 0.007617 1.759227
vt 0.175781 0.265316
vt 0.135512 0.281996
vt 0.118832 0.322266
vt 0.135512 0.362535
vt 0.175781 0.379215
vt 0.216050 0.362535
vt 0.232731 0.322266
vt 0.216050 0.281996
vt 0.215711 0.278430
vt 0.173828 0.379544
vt 0.131945 0.362195
vt 0.173828 0.261081
vt 0.131945 0.278430
vt 0.114597 0.320312
vt 0.044278 0.079439
vt 0.044278 0.442086
vt 0.007617 0.442086
vt 0.007617 0.079439
vt 0.044278 0.881133
vt 0.007617 0.881133
vt 0.044278 1.320180
vt 0.007617 1.320180
vt 0.080939 0.079439
vt 0.080939 0.442086
vt 0.080939 0.881133
vt 0.080939 1.320180
vt 0.117599 0.079439
vt 0.117599 0.442086
vt 0.117599 0.881133
vt 0.117599 1.320180
vt 0.154260 0.079439
vt 0.154260 0.442086
vt 0.154260 0.881133
vt 0.154260 1.320180
vt 0.190921 0.079439
vt 0.190921 0.442086
vt 0.190921 0.881133
vt 0.190921 1.320180
vt 0.227581 0.079439
vt 0.227581 0.442086
vt 0.227581 0.881133
vt 0.227581 1.320180
vt 0.264242 0.079439
vt 0.264242 0.442086
vt 0.264242 0.881133
vt 0.264242 1.320180
vt 0.300903 0.079439
vt 0.300903 0.442086
vt 0.300903 0.881133
vt 0.300903 1.320180
vt 0.300903 0.003039
vt 0.264242 0.003039
vt 0.227581 0.003039
vt 0.190921 0.003039
vt 0.154260 0.003039
vt 0.117599 0.003039
vt 0.080939 0.003039
vt 0.044278 0.003039
vt 0.007617 0.003039
vt 0.569110 0.575301
vt 0.654659 0.575301
vt 0.654659 0.660850
vt 0.400360 0.406550
vt 0.400360 0.660850
vt 0.317158 0.660850
vt 0.317158 0.323349
vt 0.908959 0.406550
vt 0.654659 0.406550
vt 0.654659 0.323349
vt 0.992160 0.323349
vt 0.908959 0.915150
vt 0.908959 0.660850
vt 0.992160 0.660850
vt 0.992160 0.998351
vt 0.400360 0.915150
vt 0.654659 0.915150
vt 0.654659 0.998351
vt 0.317158 0.998351
vt 0.501610 0.507801
vt 0.501610 0.660850
vt 0.807709 0.507801
vt 0.654659 0.507801
vt 0.807709 0.813899
vt 0.807709 0.660850
vt 0.501610 0.813899
vt 0.654659 0.813899
vt 0.569110 0.660850
vt 0.740209 0.575301
vt 0.740209 0.746399
vt 0.740209 0.660850
vt 0.569110 0.746399
vt 0.654659 0.746399
s 0
f 21/1/1 2/2/1 4/3/1 22/4/1
f 22/4/2 4/3/2 6/5/2 26/6/2
f 26/6/3 6/5/3 8/7/3 30/8/3
f 30/8/4 8/7/4 10/9/4 34/10/4
f 34/10/5 10/9/5 12/11/5 38/12/5
f 38/12/6 12/11/6 14/13/6 42/14/6
f 4/15/7 17/16/7 6/17/7
f 42/14/8 14/13/8 16/18/8 46/19/8
f 46/19/9 16/18/9 2/20/9 21/21/9
f 1/22/10 3/23/10 5/24/10 7/25/10 9/26/10 11/27/10 13/28/10 15/29/10
f 6/17/11 17/16/11 8/30/11
f 17/16/12 2/31/12 16/32/12
f 10/33/13 17/16/13 12/34/13
f 17/16/14 4/15/14 2/31/14
f 12/34/15 17/16/15 14/35/15
f 16/32/16 14/35/16 17/16/16
f 8/30/17 17/16/17 10/33/17
f 56/36/18 49/37/18 18/38/18 57/39/18
f 49/37/19 48/40/19 19/41/19 18/38/19
f 48/40/20 47/42/20 20/43/20 19/41/20
f 47/42/21 46/19/21 21/21/21 20/43/21
f 55/44/22 45/45/22 49/37/22 56/36/22
f 45/45/23 44/46/23 48/40/23 49/37/23
f 44/46/24 43/47/24 47/42/24 48/40/24
f 43/47/25 42/14/25 46/19/25 47/42/25
f 54/48/26 41/49/26 45/45/26 55/44/26
f 41/49/27 40/50/27 44/46/27 45/45/27
f 40/50/28 39/51/28 43/47/28 44/46/28
f 39/51/29 38/12/29 42/14/29 43/47/29
f 53/52/30 37/53/30 41/49/30 54/48/30
f 37/53/31 36/54/31 40/50/31 41/49/31
f 36/54/32 35/55/32 39/51/32 40/50/32
f 35/55/33 34/10/33 38/12/33 39/51/33
f 52/56/34 33/57/34 37/53/34 53/52/34
f 33/57/35 32/58/35 36/54/35 37/53/35
f 32/58/36 31/59/36 35/55/36 36/54/36
f 31/59/37 30/8/37 34/10/37 35/55/37
f 51/60/38 29/61/38 33/57/38 52/56/38
f 29/61/39 28/62/39 32/58/39 33/57/39
f 28/62/40 27/63/40 31/59/40 32/58/40
f 27/63/41 26/6/41 30/8/41 31/59/41
f 50/64/42 25/65/42 29/61/42 51/60/42
f 25/65/43 24/66/43 28/62/43 29/61/43
f 24/66/44 23/67/44 27/63/44 28/62/44
f 23/67/45 22/4/45 26/6/45 27/63/45
f 57/68/46 18/69/46 25/65/46 50/64/46
f 18/69/47 19/70/47 24/66/47 25/65/47
f 19/70/48 20/71/48 23/67/48 24/66/48
f 20/71/49 21/1/49 22/4/49 23/67/49
f 1/72/50 57/68/50 3/73/50
f 3/73/51 51/60/51 5/74/51
f 5/74/52 51/60/52 7/75/52
f 7/75/53 53/52/53 9/76/53
f 9/76/54 53/52/54 11/77/54
f 11/77/55 55/44/55 13/78/55
f 13/78/56 55/44/56 15/79/56
f 15/79/57 57/39/57 1/80/57
f 53/52/58 7/75/58 52/56/58
f 11/77/59 53/52/59 54/48/59
f 55/44/60 11/77/60 54/48/60
f 15/79/61 55/44/61 56/36/61
f 57/39/62 15/79/62 56/36/62
f 3/73/63 57/68/63 50/64/63
f 51/60/64 3/73/64 50/64/64
f 7/75/65 51/60/65 52/56/65
f 63/81/66 75/82/66 74/83/66
f 67/84/67 89/85/67 88/86/67 58/87/67
f 68/88/68 78/89/68 77/90/68 59/91/68
f 69/92/69 86/93/69 83/94/69 61/95/69
f 66/96/70 79/97/70 82/98/70 60/99/70
f 71/100/71 90/101/71 89/85/71 67/84/71
f 72/102/72 76/103/72 78/89/72 68/88/72
f 73/104/73 84/105/73 86/93/73 69/92/73
f 70/106/74 81/107/74 79/97/74 66/96/74
f 63/81/75 87/108/75 90/101/75 71/100/75
f 64/109/76 75/82/76 76/103/76 72/102/76
f 65/110/77 85/111/77 84/105/77 73/104/77
f 62/112/78 80/113/78 81/107/78 70/106/78
f 65/110/79 80/113/79 74/83/79
f 74/83/80 64/109/80 85/111/80
f 74/83/81 62/112/81 87/108/81
f 77/90/82 78/89/82 67/84/82 58/87/82
f 74/83/83 75/82/83 64/109/83
f 76/103/84 75/82/84 63/81/84 71/100/84
f 78/89/85 76/103/85 71/100/85 67/84/85
f 81/107/86 80/113/86 65/110/86 73/104/86
f 79/97/87 81/107/87 73/104/87 69/92/87
f 74/83/88 80/113/88 62/112/88
f 82/98/89 79/97/89 69/92/89 61/95/89
f 84/105/90 85/111/90 64/109/90 72/102/90
f 86/93/91 84/105/91 72/102/91 68/88/91
f 85/111/92 65/110/92 74/83/92
f 83/94/93 86/93/93 68/88/93 59/91/93
f 88/86/94 89/85/94 66/96/94 60/99/94
f 87/108/95 63/81/95 74/83/95
f 90/101/96 87/108/96 62/112/96 70/106/96
f 89/85/97 90/101/97 70/106/97 66/96/97
f 96/81/98 108/82/98 107/83/98
f 100/84/99 122/85/99 121/86/99 91/87/99
f 101/88/100 111/89/100 110/90/100 92/91/100
f 102/92/101 119/93/101 116/94/101 94/95/101
f 99/96/102 112/97/102 115/98/102 93/99/102
f 104/100/103 123/101/103 122/85/103 100/84/103
f 105/102/104 109/103/104 111/89/104 101/88/104
f 106/104/105 117/105/105 119/93/105 102/92/105
f 103/106/106 114/107/106 112/97/106 99/96/106
f 96/81/107 120/108/107 123/101/107 104/100/107
f 97/109/108 108/82/108 109/103/108 105/102/108
f 98/110/109 118/111/109 117/105/109 106/104/109
f 95/112/110 113/113/110 114/107/110 103/106/110
f 98/110/111 113/113/111 107/83/111
f 107/83/112 97/109/112 118/111/112
f 107/83/113 95/112/113 120/108/113
f 110/90/114 111/89/114 100/84/114 91/87/114
f 107/83/115 108/82/115 97/109/115
f 109/103/116 108/82/116 96/81/116 104/100/116
f 111/89/117 109/103/117 104/100/117 100/84/117
f 114/107/118 113/113/118 98/110/118 106/104/118
f 112/97/119 114/107/119 106/104/119 102/92/119
f 107/83/120 113/113/120 95/112/120
f 115/98/121 112/97/121 102/92/121 94/95/121
f 117/105/122 118/111/122 97/109/122 105/102/122
f 119/93/123 117/105/123 105/102/123 101/88/123
f 118/111/124 98/110/124 107/83/124
f 116/94/125 119/93/125 101/88/125 92/91/125
f 121/86/126 122/85/126 99/96/126 93/99/126
f 120/108/127 96/81/127 107/83/127
f 123/101/128 120/108/128 95/112/128 103/106/128
f 122/85/129 123/101/129 103/106/129 99/96/129
f 129/81/130 141/82/130 140/83/130
f 133/84/131 155/85/131 154/86/131 124/87/131
f 134/88/132 144/89/132 143/90/132 125/91/132
f 135/92/133 152/93/133 149/94/133 127/95/133
f 132/96/134 145/97/134 148/98/134 126/99/134
f 137/100/135 156/101/135 155/85/135 133/84/135
f 138/102/136 142/103/136 144/89/136 134/88/136
f 139/104/137 150/105/137 152/93/137 135/92/137
f 136/106/138 147/107/138 145/97/138 132/96/138
f 129/81/139 153/108/139 156/101/139 137/100/139
f 130/109/140 141/82/140 142/103/140 138/102/140
f 131/110/141 151/111/141 150/105/141 139/104/141
f 128/112/142 146/113/142 147/107/142 136/106/142
f 131/110/143 146/113/143 140/83/143
f 140/83/144 130/109/144 151/111/144
f 140/83/145 128/112/145 153/108/145
f 143/90/146 144/89/146 133/84/146 124/87/146
f 140/83/147 141/82/147 130/109/147
f 142/103/148 141/82/148 129/81/148 137/100/148
f 144/89/149 142/103/149 137/100/149 133/84/149
f 147/107/150 146/113/150 131/110/150 139/104/150
f 145/97/151 147/107/151 139/104/151 135/92/151
f 140/83/152 146/113/152 128/112/152
f 148/98/153 145/97/153 135/92/153 127/95/153
f 150/105/154 151/111/154 130/109/154 138/102/154
f 152/93/155 150/105/155 138/102/155 134/88/155
f 151/111/156 131/110/156 140/83/156
f 149/94/157 152/93/157 134/88/157 125/91/157
f 154/86/158 155/85/158 132/96/158 126/99/158
f 153/108/159 129/81/159 140/83/159
f 156/101/160 153/108/160 128/112/160 136/106/160
f 155/85/161 156/101/161 136/106/161 132/96/161
f 162/81/162 174/82/162 173/83/162
f 166/84/163 188/85/163 187/86/163 157/87/163
f 167/88/164 177/89/164 176/90/164 158/91/164
f 168/92/165 185/93/165 182/94/165 160/95/165
f 165/96/166 178/97/166 181/98/166 159/99/166
f 170/100/167 189/101/167 188/85/167 166/84/167
f 171/102/168 175/103/168 177/89/168 167/88/168
f 172/104/169 183/105/169 185/93/169 168/92/169
f 169/106/170 180/107/170 178/97/170 165/96/170
f 162/81/171 186/108/171 189/101/171 170/100/171
f 163/109/172 174/82/172 175/103/172 171/102/172
f 164/110/173 184/111/173 183/105/173 172/104/173
f 161/112/174 179/113/174 180/107/174 169/106/174
f 164/110/175 179/113/175 173/83/175
f 173/83/176 163/109/176 184/111/176
f 173/83/177 161/112/177 186/108/177
f 176/90/178 177/89/178 166/84/178 157/87/178
f 173/83/179 174/82/179 163/109/179
f 175/103/180 174/82/180 162/81/180 170/100/180
f 177/89/181 175/103/181 170/100/181 166/84/181
f 180/107/182 179/113/182 164/110/182 172/104/182
f 178/97/183 180/107/183 172/104/183 168/92/183
f 173/83/184 179/113/184 161/112/184
f 181/98/185 178/97/185 168/92/185 160/95/185
f 183/105/186 184/111/186 163/109/186 171/102/186
f 185/93/187 183/105/187 171/102/187 167/88/187
f 184/111/188 164/110/188 173/83/188
f 182/94/189 185/93/189 167/88/189 158/91/189
f 187/86/190 188/85/190 165/96/190 159/99/190
f 186/108/191 162/81/191 173/83/191
f 189/101/192 186/108/192 161/112/192 169/106/192
f 188/85/193 189/101/193 169/106/193 165/96/193
f 195/81/194 207/82/194 206/83/194
f 199/84/195 221/85/195 220/86/195 190/87/195
f 200/88/196 210/89/196 209/90/196 191/91/196
f 201/92/197 218/93/197 215/94/197 193/95/197
f 198/96/198 211/97/198 214/98/198 192/99/198
f 203/100/199 222/101/199 221/85/199 199/84/199
f 204/102/200 208/103/200 210/89/200 200/88/200
f 205/104/201 216/105/201 218/93/201 201/92/201
f 202/106/202 213/107/202 211/97/202 198/96/202
f 195/81/203 219/108/203 222/101/203 203/100/203
f 196/109/204 207/82/204 208/103/204 204/102/204
f 197/110/205 217/111/205 216/105/205 205/104/205
f 194/112/206 212/113/206 213/107/206 202/106/206
f 197/110/207 212/113/207 206/83/207
f 206/83/208 196/109/208 217/111/208
f 206/83/209 194/112/209 219/108/209
f 209/90/210 210/89/210 199/84/210 190/87/210
f 206/83/211 207/82/211 196/109/211
f 208/103/212 207/82/212 195/81/212 203/100/212
f 210/89/213 208/103/213 203/100/213 199/84/213
f 213/107/214 212/113/214 197/110/214 205/104/214
f 211/97/215 213/107/215 205/104/215 201/92/215
f 206/83/216 212/113/216 194/112/216
f 214/98/217 211/97/217 201/92/217 193/95/217
f 216/105/218 217/111/218 196/109/218 204/102/218
f 218/93/219 216/105/219 204/102/219 200/88/219
f 217/111/220 197/110/220 206/83/220
f 215/94/221 218/93/221 200/88/221 191/91/221
f 220/86/222 221/85/222 198/96/222 192/99/222
f 219/108/223 195/81/223 206/83/223
f 222/101/224 219/108/224 194/112/224 202/106/224
f 221/85/225 222/101/225 202/106/225 198/96/225
f 228/81/226 240/82/226 239/83/226
f 232/84/227 254/85/227 253/86/227 223/87/227
f 233/88/228 243/89/228 242/90/228 224/91/228
f 234/92/229 251/93/229 248/94/229 226/95/229
f 231/96/230 244/97/230 247/98/230 225/99/230
f 236/100/231 255/101/231 254/85/231 232/84/231
f 237/102/232 241/103/232 243/89/232 233/88/232
f 238/104/233 249/105/233 251/93/233 234/92/233
f 235/106/234 246/107/234 244/97/234 231/96/234
f 228/81/235 252/108/235 255/101/235 236/100/235
f 229/109/236 240/82/236 241/103/236 237/102/236
f 230/110/237 250/111/237 249/105/237 238/104/237
f 227/112/238 245/113/238 246/107/238 235/106/238
f 230/110/239 245/113/239 239/83/239
f 239/83/240 229/109/240 250/111/240
f 239/83/241 227/112/241 252/108/241
f 242/90/242 243/89/242 232/84/242 223/87/242
f 239/83/243 240/82/243 229/109/243
f 241/103/244 240/82/244 228/81/244 236/100/244
f 243/89/245 241/103/245 236/100/245 232/84/245
f 246/107/246 245/113/246 230/110/246 238/104/246
f 244/97/247 246/107/247 238/104/247 234/92/247
f 239/83/248 245/113/248 227/112/248
f 247/98/249 244/97/249 234/92/249 226/95/249
f 249/105/250 250/111/250 229/109/250 237/102/250
f 251/93/251 249/105/251 237/102/251 233/88/251
f 250/111/252 230/110/252 239/83/252
f 248/94/253 251/93/253 233/88/253 224/91/253
f 253/86/254 254/85/254 231/96/254 225/99/254
f 252/108/255 228/81/255 239/83/255
f 255/101/256 252/108/256 227/112/256 235/106/256
f 254/85/257 255/101/257 235/106/257 231/96/257
f 261/81/258 273/82/258 272/83/258
f 265/84/259 287/85/259 286/86/259 256/87/259
f 266/88/260 276/89/260 275/90/260 257/91/260
f 267/92/261 284/93/261 281/94/261 259/95/261
f 264/96/262 277/97/262 280/98/262 258/99/262
f 269/100/263 288/101/263 287/85/263 265/84/263
f 270/102/264 274/103/264 276/89/264 266/88/264
f 271/104/265 282/105/265 284/93/265 267/92/265
f 268/106/266 279/107/266 277/97/266 264/96/266
f 261/81/267 285/108/267 288/101/267 269/100/267
f 262/109/268 273/82/268 274/103/268 270/102/268
f 263/110/269 283/111/269 282/105/269 271/104/269
f 260/112/270 278/113/270 279/107/270 268/106/270
f 263/110/271 278/113/271 272/83/271
f 272/83/272 262/109/272 283/111/272
f 272/83/273 260/112/273 285/108/273
f 275/90/274 276/89/274 265/84/274 256/87/274
f 272/83/275 273/82/275 262/109/275
f 274/103/276 273/82/276 261/81/276 269/100/276
f 276/89/277 274/103/277 269/100/277 265/84/277
f 279/107/278 278/113/278 263/110/278 271/104/278
f 277/97/279 279/107/279 271/104/279 267/92/279
f 272/83/280 278/113/280 260/112/280
f 280/98/281 277/97/281 267/92/281 259/95/281
f 282/105/282 283/111/282 262/109/282 270/102/282
f 284/93/283 282/105/283 270/102/283 266/88/283
f 283/111/284 263/110/284 272/83/284
f 281/94/285 284/93/285 266/88/285 257/91/285
f 286/86/286 287/85/286 264/96/286 258/99/286
f 285/108/287 261/81/287 272/83/287
f 288/101/288 285/108/288 260/112/288 268/106/288
f 287/85/289 288/101/289 268/106/289 264/96/289
f 294/81/290 306/82/290 305/83/290
f 298/84/291 320/85/291 319/86/291 289/87/291
f 299/88/292 309/89/292 308/90/292 290/91/292
f 300/92/293 317/93/293 314/94/293 292/95/293
f 297/96/294 310/97/294 313/98/294 291/99/294
f 302/100/295 321/101/295 320/85/295 298/84/295
f 303/102/296 307/103/296 309/89/296 299/88/296
f 304/104/297 315/105/297 317/93/297 300/92/297
f 301/106/298 312/107/298 310/97/298 297/96/298
f 294/81/299 318/108/299 321/101/299 302/100/299
f 295/109/300 306/82/300 307/103/300 303/102/300
f 296/110/301 316/111/301 315/105/301 304/104/301
f 293/112/302 311/113/302 312/107/302 301/106/302
f 296/110/303 311/113/303 305/83/303
f 305/83/304 295/109/304 316/111/304
f 305/83/305 293/112/305 318/108/305
f 308/90/306 309/89/306 298/84/306 289/87/306
f 305/83/307 306/82/307 295/109/307
f 307/103/308 306/82/308 294/81/308 302/100/308
f 309/89/309 307/103/309 302/100/309 298/84/309
f 312/107/310 311/113/310 296/110/310 304/104/310
f 310/97/311 312/107/311 304/104/311 300/92/311
f 305/83/312 311/113/312 293/112/312
f 313/98/313 310/97/313 300/92/313 292/95/313
f 315/105/314 316/111/314 295/109/314 303/102/314
f 317/93/315 315/105/315 303/102/315 299/88/315
f 316/111/316 296/110/316 305/83/316
f 314/94/317 317/93/317 299/88/317 290/91/317
f 319/86/318 320/85/318 297/96/318 291/99/318
f 318/108/319 294/81/319 305/83/319
f 321/101/320 318/108/320 293/112/320 301/106/320
f 320/85/321 321/101/321 301/106/321 297/96/321
f 327/81/322 339/82/322 338/83/322
f 331/84/323 353/85/323 352/86/323 322/87/323
f 332/88/324 342/89/324 341/90/324 323/91/324
f 333/92/325 350/93/325 347/94/325 325/95/325
f 330/96/326 343/97/326 346/98/326 324/99/326
f 335/100/327 354/101/327 353/85/327 331/84/327
f 336/102/328 340/103/328 342/89/328 332/88/328
f 337/104/329 348/105/329 350/93/329 333/92/329
f 334/106/330 345/107/330 343/97/330 330/96/330
f 327/81/331 351/108/331 354/101/331 335/100/331
f 328/109/332 339/82/332 340/103/332 336/102/332
f 329/110/333 349/111/333 348/105/333 337/104/333
f 326/112/334 344/113/334 345/107/334 334/106/334
f 329/110/335 344/113/335 338/83/335
f 338/83/336 328/109/336 349/111/336
f 338/83/337 326/112/337 351/108/337
f 341/90/338 342/89/338 331/84/338 322/87/338
f 338/83/339 339/82/339 328/109/339
f 340/103/340 339/82/340 327/81/340 335/100/340
f 342/89/341 340/103/341 335/100/341 331/84/341
f 345/107/342 344/113/342 329/110/342 337/104/342
f 343/97/343 345/107/343 337/104/343 333/92/343
f 338/83/344 344/113/344 326/112/344
f 346/98/345 343/97/345 333/92/345 325/95/345
f 348/105/346 349/111/346 328/109/346 336/102/346
f 350/93/347 348/105/347 336/102/347 332/88/347
f 349/111/348 329/110/348 338/83/348
f 347/94/349 350/93/349 332/88/349 323/91/349
f 352/86/350 353/85/350 330/96/350 324/99/350
f 351/108/351 327/81/351 338/83/351
f 354/101/352 351/108/352 326/112/352 334/106/352
f 353/85/353 354/101/353 334/106/353 330/96/353
f 360/81/354 372/82/354 371/83/354
f 364/84/355 386/85/355 385/86/355 355/87/355
f 365/88/356 375/89/356 374/90/356 356/91/356
f 366/92/357 383/93/357 380/94/357 358/95/357
f 363/96/358 376/97/358 379/98/358 357/99/358
f 368/100/359 387/101/359 386/85/359 364/84/359
f 369/102/360 373/103/360 375/89/360 365/88/360
f 370/104/361 381/105/361 383/93/361 366/92/361
f 367/106/362 378/107/362 376/97/362 363/96/362
f 360/81/363 384/108/363 387/101/363 368/100/363
f 361/109/364 372/82/364 373/103/364 369/102/364
f 362/110/365 382/111/365 381/105/365 370/104/365
f 359/112/366 377/113/366 378/107/366 367/106/366
f 362/110/367 377/113/367 371/83/367
f 371/83/368 361/109/368 382/111/368
f 371/83/369 359/112/369 384/108/369
f 374/90/370 375/89/370 364/84/370 355/87/370
f 371/83/371 372/82/371 361/109/371
f 373/103/372 372/82/372 360/81/372 368/100/372
f 375/89/373 373/103/373 368/100/373 364/84/373
f 378/107/374 377/113/374 362/110/374 370/104/374
f 376/97/375 378/107/375 370/104/375 366/92/375
f 371/83/376 377/113/376 359/112/376
f 379/98/377 376/97/377 366/92/377 358/95/377
f 381/105/378 382/111/378 361/109/378 369/102/378
f 383/93/379 381/105/379 369/102/379 365/88/379
f 382/111/380 362/110/380 371/83/380
f 380/94/381 383/93/381 365/88/381 356/91/381
f 385/86/382 386/85/382 363/96/382 357/99/382
f 384/108/383 360/81/383 371/83/383
f 387/101/384 384/108/384 359/112/384 367/106/384
f 386/85/385 387/101/385 367/106/385 363/96/385
f 393/81/386 405/82/386 404/83/386
f 397/84/387 419/85/387 418/86/387 388/87/387
f 398/88/388 408/89/388 407/90/388 389/91/388
f 399/92/389 416/93/389 413/94/389 391/95/389
f 396/96/390 409/97/390 412/98/390 390/99/390
f 401/100/391 420/101/391 419/85/391 397/84/391
f 402/102/392 406/103/392 408/89/392 398/88/392
f 403/104/393 414/105/393 416/93/393 399/92/393
f 400/106/394 411/107/394 409/97/394 396/96/394
f 393/81/395 417/108/395 420/101/395 401/100/395
f 394/109/396 405/82/396 406/103/396 402/102/396
f 395/110/397 415/111/397 414/105/397 403/104/397
f 392/112/398 410/113/398 411/107/398 400/106/398
f 395/110/399 410/113/399 404/83/399
f 404/83/400 394/109/400 415/111/400
f 404/83/401 392/112/401 417/108/401
f 407/90/402 408/89/402 397/84/402 388/87/402
f 404/83/403 405/82/403 394/109/403
f 406/103/404 405/82/404 393/81/404 401/100/404
f 408/89/405 406/103/405 401/100/405 397/84/405
f 411/107/406 410/113/406 395/110/406 403/104/406
f 409/97/407 411/107/407 403/104/407 399/92/407
f 404/83/408 410/113/408 392/112/408
f 412/98/409 409/97/409 399/92/409 391/95/409
f 414/105/410 415/111/410 394/109/410 402/102/410
f 416/93/411 414/105/411 402/102/411 398/88/411
f 415/111/412 395/110/412 404/83/412
f 413/94/413 416/93/413 398/88/413 389/91/413
f 418/86/414 419/85/414 396/96/414 390/99/414
f 417/108/415 393/81/415 404/83/415
f 420/101/416 417/108/416 392/112/416 400/106/416
f 419/85/417 420/101/417 400/106/417 396/96/417
f 426/81/418 438/82/418 437/83/418
f 430/84/419 452/85/419 451/86/419 421/87/419
f 431/88/420 441/89/420 440/90/420 422/91/420
f 432/92/421 449/93/421 446/94/421 424/95/421
f 429/96/422 442/97/422 445/98/422 423/99/422
f 434/100/423 453/101/423 452/85/423 430/84/423
f 435/102/424 439/103/424 441/89/424 431/88/424
f 436/104/425 447/105/425 449/93/425 432/92/425
f 433/106/426 444/107/426 442/97/426 429/96/426
f 426/81/427 450/108/427 453/101/427 434/100/427
f 427/109/428 438/82/428 439/103/428 435/102/428
f 428/110/429 448/111/429 447/105/429 436/104/429
f 425/112/430 443/113/430 444/107/430 433/106/430
f 428/110/431 443/113/431 437/83/431
f 437/83/432 427/109/432 448/111/432
f 437/83/433 425/112/433 450/108/433
f 440/90/434 441/89/434 430/84/434 421/87/434
f 437/83/435 438/82/435 427/109/435
f 439/103/436 438/82/436 426/81/436 434/100/436
f 441/89/437 439/103/437 434/100/437 430/84/437
f 444/107/438 443/113/438 428/110/438 436/104/438
f 442/97/439 444/107/439 436/104/439 432/92/439
f 437/83/440 443/113/440 425/112/440
f 445/98/441 442/97/441 432/92/441 424/95/441
f 447/105/442 448/111/442 427/109/442 435/102/442
f 449/93/443 447/105/443 435/102/443 431/88/443
f 448/111/444 428/110/444 437/83/444
f 446/94/445 449/93/445 431/88/445 422/91/445
f 451/86/446 452/85/446 429/96/446 423/99/446
f 450/108/447 426/81/447 437/83/447
f 453/101/448 450/108/448 425/112/448 433/106/448
f 452/85/449 453/101/449 433/106/449 429/96/449
f 459/81/450 471/82/450 470/83/450
f 463/84/451 485/85/451 484/86/451 454/87/451
f 464/88/452 474/89/452 473/90/452 455/91/452
f 465/92/453 482/93/453 479/94/453 457/95/453
f 462/96/454 475/97/454 478/98/454 456/99/454
f 467/100/455 486/101/455 485/85/455 463/84/455
f 468/102/456 472/103/456 474/89/456 464/88/456
f 469/104/457 480/105/457 482/93/457 465/92/457
f 466/106/458 477/107/458 475/97/458 462/96/458
f 459/81/459 483/108/459 486/101/459 467/100/459
f 460/109/460 471/82/460 472/103/460 468/102/460
f 461/110/461 481/111/461 480/105/461 469/104/461
f 458/112/462 476/113/462 477/107/462 466/106/462
f 461/110/463 476/113/463 470/83/463
f 470/83/464 460/109/464 481/111/464
f 470/83/465 458/112/465 483/108/465
f 473/90/466 474/89/466 463/84/466 454/87/466
f 470/83/467 471/82/467 460/109/467
f 472/103/468 471/82/468 459/81/468 467/100/468
f 474/89/469 472/103/469 467/100/469 463/84/469
f 477/107/470 476/113/470 461/110/470 469/104/470
f 475/97/471 477/107/471 469/104/471 465/92/471
f 470/83/472 476/113/472 458/112/472
f 478/98/473 475/97/473 465/92/473 457/95/473
f 480/105/474 481/111/474 460/109/474 468/102/474
f 482/93/475 480/105/475 468/102/475 464/88/475
f 481/111/476 461/110/476 470/83/476
f 479/94/477 482/93/477 464/88/477 455/91/477
f 484/86/478 485/85/478 462/96/478 456/99/478
f 483/108/479 459/81/479 470/83/479
f 486/101/480 483/108/480 458/112/480 466/106/480
f 485/85/481 486/101/481 466/106/481 462/96/481
f 492/81/482 504/82/482 503/83/482
f 496/84/483 518/85/483 517/86/483 487/87/483
f 497/88/484 507/89/484 506/90/484 488/91/484
f 498/92/485 515/93/485 512/94/485 490/95/485
f 495/96/486 508/97/486 511/98/486 489/99/486
f 500/100/487 519/101/487 518/85/487 496/84/487
f 501/102/488 505/103/488 507/89/488 497/88/488
f 502/104/489 513/105/489 515/93/489 498/92/489
f 499/106/490 510/107/490 508/97/490 495/96/490
f 492/81/491 516/108/491 519/101/491 500/100/491
f 493/109/492 504/82/492 505/103/492 501/102/492
f 494/110/493 514/111/493 513/105/493 502/104/493
f 491/112/494 509/113/494 510/107/494 499/106/494
f 494/110/495 509/113/495 503/83/495
f 503/83/496 493/109/496 514/111/496
f 503/83/497 491/112/497 516/108/497
f 506/90/498 507/89/498 496/84/498 487/87/498
f 503/83/499 504/82/499 493/109/499
f 505/103/500 504/82/500 492/81/500 500/100/500
f 507/89/501 505/103/501 500/100/501 496/84/501
f 510/107/502 509/113/502 494/110/502 502/104/502
f 508/97/503 510/107/503 502/104/503 498/92/503
f 503/83/504 509/113/504 491/112/504
f 511/98/505 508/97/505 498/92/505 490/95/505
f 513/105/506 514/111/506 493/109/506 501/102/506
f 515/93/507 513/105/507 501/102/507 497/88/507
f 514/111/508 494/110/508 503/83/508
f 512/94/509 515/93/509 497/88/509 488/91/509
f 517/86/510 518/85/510 495/96/510 489/99/510
f 516/108/511 492/81/511 503/83/511
f 519/101/512 516/108/512 491/112/512 499/106/512
f 518/85/513 519/101/513 499/106/513 495/96/513
f 525/81/514 537/82/514 536/83/514
f 529/84/515 551/85/515 550/86/515 520/87/515
f 530/88/516 540/89/516 539/90/516 521/91/516
f 531/92/517 548/93/517 545/94/517 523/95/517
f 528/96/518 541/97/518 544/98/518 522/99/518
f 533/100/519 552/101/519 551/85/519 529/84/519
f 534/102/520 538/103/520 540/89/520 530/88/520
f 535/104/521 546/105/521 548/93/521 531/92/521
f 532/106/522 543/107/522 541/97/522 528/96/522
f 525/81/523 549/108/523 552/101/523 533/100/523
f 526/109/524 537/82/524 538/103/524 534/102/524
f 527/110/525 547/111/525 546/105/525 535/104/525
f 524/112/526 542/113/526 543/107/526 532/106/526
f 527/110/527 542/113/527 536/83/527
f 536/83/528 526/109/528 547/111/528
f 536/83/529 524/112/529 549/108/529
f 539/90/530 540/89/530 529/84/530 520/87/530
f 536/83/531 537/82/531 526/109/531
f 538/103/532 537/82/532 525/81/532 533/100/532
f 540/89/533 538/103/533 533/100/533 529/84/533
f 543/107/534 542/113/534 527/110/534 535/104/534
f 541/97/535 543/107/535 535/104/535 531/92/535
f 536/83/536 542/113/536 524/112/536
f 544/98/537 541/97/537 531/92/537 523/95/537
f 546/105/538 547/111/538 526/109/538 534/102/538
f 548/93/539 546/105/539 534/102/539 530/88/539
f 547/111/540 527/110/540 536/83/540
f 545/94/541 548/93/541 530/88/541 521/91/541
f 550/86/542 551/85/542 528/96/542 522/99/542
f 549/108/543 525/81/543 536/83/543
f 552/101/544 549/108/544 524/112/544 532/106/544
f 551/85/545 552/101/545 532/106/545 528/96/545
